<svg width="200" height="290" viewBox="0 0 200 290" fill="none" xmlns="http://www.w3.org/2000/svg">
<g clip-path="url(#clip0_536_3171)">
<path d="M200 0H0V290H200V0Z" fill="#497FB3"/>
<mask id="mask0_536_3171" style="mask-type:luminance" maskUnits="userSpaceOnUse" x="29" y="36" width="142" height="221">
<path d="M100.076 256.379C139.157 256.379 170.839 207.248 170.839 146.642C170.839 86.0366 139.157 36.9058 100.076 36.9058C60.995 36.9058 29.3135 86.0366 29.3135 146.642C29.3135 207.248 60.995 256.379 100.076 256.379Z" fill="white"/>
</mask>
<g mask="url(#mask0_536_3171)">
<path d="M58.068 192.142H77.5524V125.374H97.6338V112.451H97.916C97.916 112.451 97.8943 112.429 97.878 112.419C94.4208 112.128 87.6962 110.55 83.7234 103.023C74.6487 101.488 66.0137 98.6772 58.0083 94.7788V223.911H75.3869C65.4004 216.668 58.7247 205.194 58.0626 192.142H58.068Z" fill="#F0E0CA"/>
<path d="M115.87 103.028C113.536 107.368 109.341 111.568 101.813 112.338C101.775 112.375 101.732 112.419 101.694 112.456H102.519V125.379H122.6V192.147H142.627C141.965 205.199 135.289 216.674 125.303 223.916H151.365V89.292C140.793 96.0819 128.776 100.847 115.875 103.028H115.87Z" fill="#F0E0CA"/>
<path d="M23.2783 65.9604V223.916H58.0137V94.7838C44.2227 88.0693 32.3095 78.1295 23.2783 65.9604Z" fill="#3C693C"/>
<path d="M58.0137 32.2212H23.2783V65.9553C32.3095 78.1243 44.2227 88.0588 58.0137 94.7787C66.0137 98.6771 74.6542 101.488 83.7288 103.022C82.3177 100.346 81.2539 96.9163 80.8088 92.5279C80.8088 92.5279 78.0951 77.9897 99.973 48.3909C99.973 48.3909 120.429 75.8359 118.801 92.5279C118.801 92.5279 118.649 97.8694 115.875 103.022C128.782 100.842 140.798 96.0763 151.365 89.2864V32.2212H58.0137Z" fill="#CA5858"/>
<path d="M77.5525 125.374V192.142H122.6V125.374H102.519H97.6339H77.5525Z" fill="#F2DEAF"/>
<path d="M151.365 32.2212V89.2918V223.91H176.874V65.223V32.2212H151.365Z" fill="#3B746D"/>
<path d="M142.622 192.142H58.0681C58.7303 205.194 65.406 216.668 75.3924 223.91H125.297C135.284 216.668 141.96 205.194 142.622 192.142Z" fill="#EEAE6B"/>
<path d="M151.365 223.911H125.297H75.3923H58.0137H23.2783V261.064H58.0137H151.365H176.874V223.911H151.365Z" fill="#2B426E"/>
<path d="M98.3611 112.451H97.6338V125.374H102.518V112.451H100.076C100.076 112.451 99.4248 112.51 98.3611 112.451Z" fill="black"/>
<path d="M99.9731 48.3965C78.0952 77.9952 80.8089 92.5335 80.8089 92.5335C81.2539 96.9219 82.3123 100.352 83.7288 103.028C87.6963 110.555 94.4262 112.128 97.8835 112.424C95.8645 110.572 93.7098 106.512 92.5429 104.11C91.9948 102.99 91.6691 102.231 91.6691 102.231C88.9554 91.462 99.8102 79.0829 99.8102 79.0829C99.8102 79.0829 110.665 91.462 107.951 102.231C107.951 102.231 107.62 102.99 107.078 104.11C105.927 106.479 103.816 110.453 101.824 112.343C109.357 111.573 113.547 107.373 115.881 103.033C118.654 97.8803 118.806 92.5389 118.806 92.5389C120.434 75.8468 99.9785 48.4019 99.9785 48.4019L99.9731 48.3965Z" fill="#F68C47"/>
<path d="M99.8047 79.0718C99.8047 79.0718 88.9499 91.4508 91.6636 102.22C91.6636 102.22 91.9946 102.979 92.5374 104.099C93.7043 106.501 95.8589 110.561 97.8779 112.413C98.0462 112.429 98.2036 112.44 98.3556 112.445H100.071C100.668 112.429 101.248 112.386 101.807 112.327C103.805 110.437 105.911 106.458 107.061 104.094C107.609 102.974 107.935 102.215 107.935 102.215C110.649 91.4454 99.7938 79.0664 99.7938 79.0664L99.8047 79.0718Z" fill="#CA5858"/>
</g>
</g>
<defs>
<clipPath id="clip0_536_3171">
<rect width="200" height="290" rx="8" fill="white"/>
</clipPath>
</defs>
</svg>
