<svg width="200" height="290" viewBox="0 0 200 290" fill="none" xmlns="http://www.w3.org/2000/svg">
<g clip-path="url(#clip0_536_3220)">
<path d="M200 0H0V290H200V0Z" fill="#497FB3"/>
<mask id="mask0_536_3220" style="mask-type:luminance" maskUnits="userSpaceOnUse" x="29" y="38" width="142" height="220">
<path d="M99.8587 257.973C138.94 257.973 170.621 208.842 170.621 148.236C170.621 87.6303 138.94 38.4995 99.8587 38.4995C60.7777 38.4995 29.0962 87.6303 29.0962 148.236C29.0962 208.842 60.7777 257.973 99.8587 257.973Z" fill="white"/>
</mask>
<g mask="url(#mask0_536_3220)">
<path d="M22.7896 33.4219V113.511L61.3242 33.4219H22.7896Z" fill="#CA5858"/>
<path d="M99.8588 33.4219H61.3242L99.8588 113.511V33.4219Z" fill="#CA5858"/>
<path d="M99.8587 148.112V113.511L61.3242 33.4219L22.7896 113.511V148.112H99.8587Z" fill="black"/>
<path d="M99.8587 148.112V113.511L61.3242 33.4219L22.7896 113.511V148.112H99.8587Z" fill="#962F34"/>
<path d="M131.316 65.9821C137.416 71.0274 140.944 73.6605 148.353 73.6605C155.761 73.6605 159.289 71.0274 165.389 65.9821C168.749 63.2037 172.217 60.3391 176.933 57.943V33.4219H99.8643V53.3069C107.164 53.3985 113.563 54.8523 119.403 57.7492C124.309 60.183 127.875 63.1283 131.322 65.9821H131.316Z" fill="#2B426E"/>
<path d="M131.36 103.318C137.46 108.364 140.988 110.997 148.396 110.997C155.805 110.997 159.332 108.364 165.433 103.318C168.782 100.551 172.239 97.697 176.928 95.3009V80.025C174.513 81.8934 171.87 83.7134 168.646 85.318C162.605 88.3172 155.967 89.771 148.347 89.771C140.727 89.771 134.09 88.3118 128.049 85.318C123.143 82.8842 119.577 79.9388 116.13 77.085C110.247 72.2174 106.741 69.6059 99.8535 69.4282V90.6433C107.175 90.7294 113.59 92.1832 119.441 95.0855C124.347 97.5193 127.913 100.465 131.36 103.318Z" fill="#2B426E"/>
<path d="M148.396 127.113C140.776 127.113 134.138 125.654 128.098 122.66C123.191 120.226 119.626 117.281 116.179 114.427C110.28 109.548 106.773 106.937 99.8535 106.765V148.107H176.923V117.399C174.524 119.257 171.892 121.066 168.689 122.654C162.649 125.654 156.011 127.107 148.391 127.107L148.396 127.113Z" fill="#2B426E"/>
<path d="M128.049 85.3182C134.09 88.3174 140.727 89.7712 148.347 89.7712C155.967 89.7712 162.605 88.312 168.646 85.3182C171.87 83.719 174.513 81.899 176.928 80.0252V57.9378C172.217 60.334 168.744 63.2039 165.384 65.9769C159.284 71.0222 155.756 73.6553 148.347 73.6553C140.939 73.6553 137.411 71.0222 131.311 65.9769C127.864 63.1285 124.299 60.1778 119.392 57.744C113.552 54.8471 107.153 53.3933 99.8535 53.3018V69.423C106.741 69.6007 110.247 72.2176 116.13 77.0798C119.577 79.9283 123.143 82.879 128.049 85.3128V85.3182Z" fill="#2B75A2"/>
<path d="M165.433 103.318C159.332 108.364 155.805 110.997 148.396 110.997C140.988 110.997 137.46 108.364 131.36 103.318C127.913 100.47 124.347 97.5191 119.441 95.0853C113.59 92.183 107.175 90.7292 99.8535 90.6431V106.764C106.773 106.931 110.28 109.548 116.179 114.427C119.626 117.275 123.191 120.226 128.098 122.659C134.138 125.659 140.776 127.112 148.396 127.112C156.016 127.112 162.654 125.653 168.695 122.659C171.897 121.071 174.529 119.262 176.928 117.404V95.3061C172.239 97.6968 168.776 100.556 165.433 103.324V103.318Z" fill="#2B75A2"/>
<path d="M99.8588 224.788H59.9131V263.056H99.8588V224.788Z" fill="#3C693C"/>
<path d="M22.8223 148.365L99.8589 224.788V148.365H22.8223Z" fill="#3C693C"/>
<path d="M22.7896 148.365V263.056H59.913V224.788H99.8587L22.8221 148.365H22.7896Z" fill="#19361E"/>
<path d="M176.928 148.365H99.8589V263.056H176.928V148.365Z" fill="#737469"/>
<path d="M163.902 165.057H112.885V246.364H163.902V165.057Z" fill="#3C693C"/>
</g>
</g>
<defs>
<clipPath id="clip0_536_3220">
<rect width="200" height="290" rx="8" fill="white"/>
</clipPath>
</defs>
</svg>
