<svg width="200" height="290" viewBox="0 0 200 290" fill="none" xmlns="http://www.w3.org/2000/svg">
<g clip-path="url(#clip0_536_3096)">
<path d="M200 0H0V290H200V0Z" fill="#497FB3"/>
<mask id="mask0_536_3096" style="mask-type:luminance" maskUnits="userSpaceOnUse" x="29" y="36" width="142" height="220">
<path d="M100.043 255.663C139.124 255.663 170.806 206.532 170.806 145.926C170.806 85.3203 139.124 36.1895 100.043 36.1895C60.9622 36.1895 29.2808 85.3203 29.2808 145.926C29.2808 206.532 60.9622 255.663 100.043 255.663Z" fill="white"/>
</mask>
<g mask="url(#mask0_536_3096)">
<path d="M119.235 147.245H149.927C143.235 166.242 125.872 180.263 104.966 182.245V254.209C106.312 214.88 138.865 183.402 178.838 183.402C178.914 183.402 178.99 183.402 179.066 183.402C179.066 183.478 179.066 183.553 179.066 183.628C179.066 224.131 145.97 256.966 105.145 256.966C105.085 256.966 105.02 256.966 104.96 256.966V266.55H179.848V104.406H150.551C149.096 123.806 136.575 140.148 119.235 147.245Z" fill="#2B426E"/>
<path d="M94.9414 256.966C54.1165 256.966 21.0201 224.131 21.0201 183.628C21.0201 183.553 21.0201 183.478 21.0201 183.402C21.0961 183.402 21.1721 183.402 21.2481 183.402C61.2209 183.402 93.78 214.886 95.1205 254.22V182.282C74.0513 180.43 56.5208 166.355 49.7908 147.245H80.4828C63.1368 140.143 50.6212 123.806 49.1667 104.406H20.2332V266.55H95.1205V256.966C95.0608 256.966 94.9957 256.966 94.936 256.966H94.9414Z" fill="#2B426E"/>
<path d="M80.4881 147.245H49.7961C56.5261 166.355 74.0512 180.43 95.1259 182.282V150.826C89.9861 150.352 85.0689 149.124 80.4881 147.251V147.245Z" fill="#2D5370"/>
<path d="M80.4881 147.245H49.7961C56.5261 166.355 74.0512 180.43 95.1259 182.282V150.826C89.9861 150.352 85.0689 149.124 80.4881 147.251V147.245Z" fill="#F1BF50"/>
<path d="M104.966 182.245C125.872 180.263 143.24 166.242 149.927 147.245H119.235C114.762 149.076 109.97 150.293 104.96 150.788V182.245H104.966Z" fill="#2D5370"/>
<path d="M104.966 182.245C125.872 180.263 143.24 166.242 149.927 147.245H119.235C114.762 149.076 109.97 150.293 104.96 150.788V182.245H104.966Z" fill="#F1BF50"/>
<path d="M95.1695 256.966C95.1695 256.89 95.1695 256.815 95.1695 256.74C95.1695 255.894 95.1477 255.06 95.1206 254.22V256.966C95.1206 256.966 95.1532 256.966 95.164 256.966H95.1695Z" fill="black"/>
<path d="M104.917 256.966C104.917 256.966 104.95 256.966 104.96 256.966V254.209C104.933 255.049 104.912 255.889 104.912 256.74C104.912 256.815 104.912 256.89 104.912 256.966H104.917Z" fill="black"/>
<path d="M21.2536 183.402C21.1776 183.402 21.1016 183.402 21.0256 183.402C21.0256 183.478 21.0256 183.553 21.0256 183.629C21.0256 224.131 54.122 256.966 94.9469 256.966C95.0066 256.966 95.0718 256.966 95.1315 256.966V254.22C93.7909 214.886 61.2373 183.402 21.259 183.402H21.2536Z" fill="#3C693C"/>
<path d="M179.061 183.402C178.985 183.402 178.909 183.402 178.833 183.402C138.86 183.402 106.306 214.88 104.96 254.209V256.966C105.02 256.966 105.08 256.966 105.145 256.966C145.97 256.966 179.066 224.131 179.066 183.629C179.066 183.553 179.066 183.478 179.066 183.402H179.061Z" fill="#3C693C"/>
<path d="M104.917 256.734C104.917 255.889 104.939 255.043 104.966 254.203V150.783C103.289 150.95 101.585 151.036 99.8641 151.036C98.2684 151.036 96.6891 150.96 95.126 150.815V254.214C95.1531 255.049 95.1748 255.889 95.1748 256.734C95.1748 256.809 95.1748 256.885 95.1748 256.96C95.1585 256.96 95.1423 256.96 95.1314 256.96V266.545H104.971V256.96C104.971 256.96 104.939 256.96 104.928 256.96C104.928 256.885 104.928 256.809 104.928 256.734H104.917Z" fill="#3C693C"/>
<path d="M20.2385 36.0762V104.406H49.172C49.0798 103.151 49.0309 101.886 49.0309 100.61C49.0309 72.7556 71.788 50.1783 99.864 50.1783C127.94 50.1783 150.697 72.7556 150.697 100.61C150.697 101.886 150.648 103.151 150.556 104.406H179.853V36.0762H20.2385Z" fill="#EFE1CF"/>
<path d="M99.8641 50.1729C71.7881 50.1729 49.031 72.7502 49.031 100.604C49.031 101.88 49.0799 103.146 49.1721 104.4C50.6267 123.801 63.1477 140.143 80.4883 147.24C85.069 149.114 89.9862 150.347 95.126 150.815C96.6837 150.96 98.263 151.036 99.8641 151.036C101.585 151.036 103.289 150.95 104.966 150.783C109.975 150.287 114.768 149.071 119.24 147.24C136.586 140.138 149.102 123.801 150.556 104.4C150.648 103.146 150.697 101.88 150.697 100.604C150.697 72.7502 127.94 50.1729 99.8641 50.1729Z" fill="#CA5858"/>
</g>
</g>
<defs>
<clipPath id="clip0_536_3096">
<rect width="200" height="290" rx="8" fill="white"/>
</clipPath>
</defs>
</svg>
