<svg width="200" height="290" viewBox="0 0 200 290" fill="none" xmlns="http://www.w3.org/2000/svg">
<g clip-path="url(#clip0_536_3415)">
<path d="M200 0H0V290H200V0Z" fill="#497FB3"/>
<mask id="mask0_536_3415" style="mask-type:luminance" maskUnits="userSpaceOnUse" x="29" y="42" width="142" height="221">
<path d="M99.9457 262.114C139.027 262.114 170.708 212.983 170.708 152.377C170.708 91.7709 139.027 42.6401 99.9457 42.6401C60.8646 42.6401 29.1831 91.7709 29.1831 152.377C29.1831 212.983 60.8646 262.114 99.9457 262.114Z" fill="white"/>
</mask>
<g mask="url(#mask0_536_3415)">
<mask id="mask1_536_3415" style="mask-type:luminance" maskUnits="userSpaceOnUse" x="22" y="37" width="156" height="230">
<path d="M177.015 37.9556H22.8765V266.798H177.015V37.9556Z" fill="white"/>
</mask>
<g mask="url(#mask1_536_3415)">
<path d="M97.2105 102.656C97.2105 131.399 83.0612 156.862 61.3027 172.574H97.2322V193.283C97.2865 193.235 97.3407 193.186 97.4004 193.138C98.3231 192.325 99.3434 191.436 100.505 190.564C98.7356 184.878 97.7804 178.836 97.7804 172.569C97.7804 138.964 125.238 111.724 159.11 111.724C165.341 111.724 171.354 112.65 177.021 114.362V37.9556H67.8482C85.8563 53.7861 97.2105 76.9019 97.2105 102.651V102.656Z" fill="#EEAE6B"/>
<path d="M145.129 136.616C124.939 136.616 108.51 120.317 108.51 100.282C108.51 80.2458 124.939 63.9468 145.129 63.9468C165.319 63.9468 181.753 80.2458 181.753 100.282C181.753 120.317 165.324 136.616 145.129 136.616ZM145.129 75.6904C131.484 75.7227 120.369 86.7556 120.342 100.292C120.369 113.818 131.49 124.851 145.134 124.878C158.773 124.851 169.894 113.818 169.921 100.282C169.9 86.7556 158.779 75.7227 145.129 75.6904Z" fill="#2B75A2"/>
<path d="M145.129 116.284C154.037 116.284 161.259 109.12 161.259 100.282C161.259 91.4435 154.037 84.2788 145.129 84.2788C136.22 84.2788 128.999 91.4435 128.999 100.282C128.999 109.12 136.22 116.284 145.129 116.284Z" fill="#2B75A2"/>
<path d="M145.129 108.358C149.625 108.358 153.27 104.742 153.27 100.281C153.27 95.8207 149.625 92.2046 145.129 92.2046C140.633 92.2046 136.988 95.8207 136.988 100.281C136.988 104.742 140.633 108.358 145.129 108.358Z" fill="#EEAE6B"/>
<path d="M177.015 99.8774H22.8765V172.569H177.015V99.8774Z" fill="#CA5858"/>
<path d="M176.472 114.211C170.964 112.601 165.14 111.724 159.105 111.724C125.232 111.724 97.7749 138.964 97.7749 172.569C97.7749 178.831 98.7301 184.872 100.499 190.564C103.43 188.362 107.273 186.283 112.89 185.912C111.62 181.636 110.931 177.113 110.931 172.434C110.931 171.971 110.942 171.513 110.953 171.056C112.939 195.712 133.737 215.107 159.099 215.107C165.221 215.107 171.077 213.976 176.467 211.914V114.211H176.472Z" fill="#2B75A2"/>
<path d="M97.2319 221.643C97.2862 221.595 97.3405 221.546 97.4002 221.498C100.868 218.456 105.606 214.315 114.399 214.218C110.757 210.368 107.609 206.055 105.069 201.371C103.061 203.121 100.602 205.113 97.2319 206.475V221.643Z" fill="black"/>
<path d="M61.5847 172.569C50.388 180.592 37.1994 186.073 22.8765 188.146V189.95C24.407 191.011 25.6987 192.131 26.8493 193.132C29.7856 195.69 31.7231 197.381 35.9131 197.381C40.1031 197.381 42.0352 195.69 44.9769 193.132C48.5101 190.058 53.3405 185.847 62.3989 185.847C71.4572 185.847 76.293 190.058 79.8208 193.132C82.7571 195.69 84.6947 197.381 88.8846 197.381C93.0746 197.381 94.9362 195.755 97.7801 193.278V172.569H61.5902H61.5847Z" fill="#2B75A2"/>
<path d="M35.9131 225.747C40.0976 225.747 42.0352 224.056 44.9769 221.498C48.5101 218.424 53.3405 214.213 62.3989 214.213C71.4572 214.213 76.293 218.424 79.8208 221.498C82.7571 224.056 84.6947 225.747 88.8846 225.747C93.0746 225.747 94.9362 224.12 97.7801 221.644V206.475C95.3487 207.45 92.445 208.107 88.8846 208.107C79.8263 208.107 74.9904 203.896 71.4626 200.822C68.5264 198.264 66.5834 196.573 62.3989 196.573C58.2143 196.573 56.2713 198.264 53.3351 200.822C49.8018 203.896 44.9714 208.107 35.9131 208.107C34.8819 208.107 33.8561 208.048 32.8683 207.94C32.6512 207.935 32.4558 207.918 32.255 207.892C28.2876 207.375 25.3025 206.012 22.8765 204.424V218.321C24.407 219.382 25.6987 220.502 26.8493 221.504C29.7856 224.061 31.7231 225.752 35.9131 225.752V225.747Z" fill="#2B75A2"/>
<path d="M88.8792 264.827C79.8209 264.827 74.9851 260.616 71.4573 257.542C68.521 254.984 66.578 253.293 62.3935 253.293C58.209 253.293 56.2659 254.984 53.3297 257.542C49.7965 260.616 44.9661 264.827 35.9077 264.827C34.8765 264.827 33.8507 264.768 32.863 264.66C32.6459 264.655 32.4505 264.639 32.2497 264.612C28.2822 264.095 25.2971 262.733 22.8711 261.144V266.803H97.7693V263.196C95.3379 264.17 92.4342 264.827 88.8738 264.827H88.8792Z" fill="#2B75A2"/>
<path d="M35.9131 254.106C40.0976 254.106 42.0352 252.416 44.9769 249.858C48.5101 246.784 53.3405 242.573 62.3989 242.573C71.4572 242.573 76.293 246.784 79.8208 249.858C82.7571 252.416 84.6947 254.106 88.8846 254.106C93.0746 254.106 94.9362 252.48 97.7801 250.003V234.83C95.3487 235.804 92.445 236.461 88.8846 236.461C79.8263 236.461 74.9904 232.251 71.4626 229.176C68.5264 226.618 66.5834 224.928 62.3989 224.928C58.2143 224.928 56.2713 226.618 53.3351 229.176C49.8018 232.251 44.9714 236.461 35.9131 236.461C34.8819 236.461 33.8561 236.402 32.8683 236.294C32.6512 236.289 32.4558 236.273 32.255 236.246C28.2876 235.729 25.3025 234.367 22.8765 232.778V246.676C24.407 247.737 25.6987 248.857 26.8493 249.858C29.7856 252.416 31.7231 254.106 35.9131 254.106Z" fill="#2B75A2"/>
<path d="M33.4165 102.656C33.4002 94.5632 29.2157 87.4556 22.8765 83.3257V121.987C29.2157 117.857 33.4002 110.749 33.4165 102.662V102.656Z" fill="#2B75A2"/>
<path d="M80.5372 102.656C80.5372 83.3579 72.6512 65.8905 59.9077 53.2476C53.3459 46.7323 45.487 41.504 36.7543 37.9609H22.8765V41.3693C51.5875 47.2277 73.1777 72.4435 73.1777 102.661C73.1777 132.879 51.5875 158.09 22.8765 163.948V171.384C37.2048 168.778 50.0189 161.875 59.9077 152.065C72.6512 139.422 80.5372 121.949 80.5372 102.656Z" fill="#2B75A2"/>
<path d="M64.8303 102.662C64.7815 77.0365 46.9253 55.6007 22.8765 49.8716V57.3938C42.8276 62.9237 57.4653 81.0911 57.4653 102.656C57.4653 124.221 42.8276 142.383 22.8765 147.918V155.441C46.9253 149.706 64.7815 128.27 64.8303 102.662Z" fill="#2B75A2"/>
<path d="M88.8795 102.656C88.8795 133.251 71.1536 159.737 45.3408 172.574H61.3028C83.0613 156.862 97.2106 131.404 97.2106 102.656C97.2106 76.9072 85.8564 53.7915 67.8483 37.9609H54.3123C75.1753 52.0199 88.8795 75.7496 88.8795 102.656Z" fill="#2B75A2"/>
<path d="M49.1234 102.656C49.0963 85.7164 38.1438 71.3559 22.8765 66.0952V73.9136C33.9972 78.7866 41.7638 89.8194 41.7638 102.656C41.7638 115.493 34.0027 126.52 22.8765 131.393V139.217C38.1383 133.956 49.0908 119.596 49.1234 102.662V102.656Z" fill="#2B75A2"/>
<path d="M45.3405 172.569C38.3771 176.031 30.8276 178.497 22.8765 179.784V188.146C37.0908 186.073 50.1926 180.592 61.3025 172.569H45.3405Z" fill="#2B75A2"/>
<path d="M59.9077 53.2422C72.6512 65.8851 80.5372 83.3525 80.5372 102.651C80.5372 121.949 72.6512 139.416 59.9077 152.059C50.0189 161.87 37.2048 168.773 22.8765 171.379V172.569H45.3405C71.1587 159.737 88.8792 133.251 88.8792 102.651C88.8792 75.7442 75.175 52.0146 54.312 37.9556H36.7543C45.487 41.4986 53.3459 46.727 59.9077 53.2422Z" fill="#CA5858"/>
<path d="M22.8765 172.569V179.784C30.8276 178.497 38.3771 176.031 45.3405 172.569H22.8765Z" fill="#CA5858"/>
<path d="M64.8303 102.661C64.7815 128.275 46.9253 149.706 22.8765 155.44V163.948C51.5875 158.09 73.1777 132.874 73.1777 102.661C73.1777 72.4486 51.5875 47.2275 22.8765 41.3691V49.8713C46.9253 55.6005 64.7815 77.0363 64.8303 102.661Z" fill="#CA5858"/>
<path d="M49.1234 102.656C49.0963 119.59 38.1438 133.956 22.8765 139.211V147.913C42.8276 142.378 57.4653 124.21 57.4653 102.651C57.4653 81.0909 42.8276 62.9181 22.8765 57.3882V66.0896C38.1383 71.3503 49.0908 85.7108 49.1234 102.651V102.656Z" fill="#CA5858"/>
<path d="M33.4165 102.656C33.4002 110.744 29.2157 117.851 22.8765 121.981V131.388C33.9972 126.515 41.7638 115.488 41.7638 102.651C41.7638 89.8141 34.0027 78.7812 22.8765 73.9082V83.315C29.2157 87.4503 33.4002 94.5579 33.4165 102.645V102.656Z" fill="#CA5858"/>
<path d="M158.969 220.093C141.525 220.093 126.22 210.815 117.807 196.977C116.901 196.713 115.892 196.573 114.697 196.573C110.54 196.573 108.619 198.264 105.704 200.822C105.498 200.999 105.286 201.188 105.075 201.376C107.615 206.061 110.763 210.379 114.404 214.224C114.508 214.224 114.6 214.213 114.703 214.213C117.862 214.213 120.499 214.741 122.746 215.548V221.574C132.923 229.02 145.498 233.42 159.11 233.42C165.341 233.42 171.354 232.493 177.02 230.781V216.598C171.446 218.849 165.352 220.093 158.974 220.093H158.969Z" fill="#2B75A2"/>
<path d="M110.801 172.439C110.801 177.124 111.49 181.652 112.766 185.928C113.352 185.89 113.949 185.863 114.573 185.863C117.742 185.863 120.386 186.391 122.638 187.198V200.019C120.994 198.608 119.577 197.542 117.688 196.998C126.122 210.858 141.466 220.141 158.958 220.141C165.357 220.141 171.463 218.897 177.053 216.641V202.765C171.745 205.893 165.563 207.703 158.964 207.713C139.36 207.676 123.376 191.845 123.338 172.439C123.376 153.017 139.349 137.187 158.953 137.144C165.553 137.16 171.74 138.969 177.048 142.098V128.216C171.458 125.96 165.352 124.716 158.953 124.716C132.396 124.716 110.795 146.12 110.795 172.429L110.801 172.439Z" fill="#CA5858"/>
<path d="M158.915 147.859C145.232 147.859 134.139 158.865 134.139 172.44C134.139 186.014 145.232 197.02 158.915 197.02C165.889 197.02 172.185 194.156 176.69 189.557V155.328C172.185 150.724 165.889 147.865 158.915 147.865V147.859ZM158.915 186.133C151.289 186.133 145.113 180 145.113 172.44C145.113 164.88 151.295 158.747 158.915 158.747C166.535 158.747 172.717 164.88 172.717 172.44C172.717 180 166.535 186.133 158.915 186.133Z" fill="#CA5858"/>
<path d="M158.969 186.299C166.687 186.299 172.944 180.092 172.944 172.434C172.944 164.776 166.687 158.569 158.969 158.569C151.25 158.569 144.993 164.776 144.993 172.434C144.993 180.092 151.25 186.299 158.969 186.299Z" fill="#2B75A2"/>
<path d="M32.863 207.935C33.8562 208.048 34.882 208.101 35.9077 208.101C44.9661 208.101 49.8019 203.891 53.3297 200.816C56.2659 198.259 58.2035 196.568 62.3935 196.568C66.5834 196.568 68.5156 198.259 71.4573 200.816C74.9851 203.891 79.8209 208.101 88.8792 208.101C92.4396 208.101 95.3379 207.445 97.7748 206.47V193.283C94.9308 195.76 92.9824 197.386 88.8792 197.386C84.7761 197.386 82.7517 195.695 79.8155 193.138C76.2822 190.063 71.4518 185.853 62.3935 185.853C53.3351 185.853 48.4993 190.063 44.9715 193.138C42.0353 195.695 40.0977 197.386 35.9077 197.386C31.7178 197.386 29.7802 195.695 26.844 193.138C25.6933 192.136 24.4016 191.016 22.8711 189.956V204.418C25.2971 206.007 28.2822 207.369 32.2497 207.886C32.445 207.913 32.6459 207.929 32.863 207.935Z" fill="#54AB65"/>
<path d="M100.505 190.564C101.683 194.338 103.219 197.951 105.069 201.371C105.286 201.182 105.493 200.999 105.699 200.816C108.613 198.258 110.54 196.568 114.692 196.568C115.892 196.568 116.901 196.708 117.802 196.971C115.718 193.542 114.057 189.832 112.89 185.912C107.273 186.283 103.425 188.362 100.5 190.564H100.505Z" fill="#D38E33"/>
<path d="M122.741 187.188C120.488 186.38 117.856 185.853 114.697 185.853C114.079 185.853 113.482 185.879 112.896 185.917C114.062 189.837 115.723 193.547 117.807 196.977C119.691 197.521 121.102 198.582 122.741 199.992V187.188Z" fill="#D38E33"/>
<path d="M32.863 236.295C33.8562 236.408 34.882 236.462 35.9077 236.462C44.9661 236.462 49.8019 232.251 53.3297 229.177C56.2659 226.619 58.2035 224.928 62.3935 224.928C66.5834 224.928 68.5156 226.619 71.4573 229.177C74.9851 232.251 79.8209 236.462 88.8792 236.462C92.4396 236.462 95.3379 235.805 97.7748 234.83V221.644C94.9308 224.12 92.9824 225.747 88.8792 225.747C84.7761 225.747 82.7517 224.056 79.8155 221.498C76.2822 218.424 71.4518 214.213 62.3935 214.213C53.3351 214.213 48.4993 218.424 44.9715 221.498C42.0353 224.056 40.0977 225.747 35.9077 225.747C31.7178 225.747 29.7802 224.056 26.844 221.498C25.6933 220.497 24.4016 219.377 22.8711 218.316V232.779C25.2971 234.367 28.2822 235.729 32.2497 236.246C32.445 236.273 32.6459 236.289 32.863 236.295Z" fill="#54AB65"/>
<path d="M122.741 221.568V215.543C120.488 214.735 117.856 214.208 114.697 214.208C114.594 214.208 114.502 214.213 114.399 214.218C116.95 216.911 119.739 219.371 122.741 221.568Z" fill="#D38E33"/>
<path d="M32.863 264.655C33.8562 264.768 34.882 264.822 35.9077 264.822C44.9661 264.822 49.8019 260.611 53.3297 257.537C56.2659 254.979 58.2035 253.288 62.3935 253.288C66.5834 253.288 68.5156 254.979 71.4573 257.537C74.9851 260.611 79.8209 264.822 88.8792 264.822C92.4396 264.822 95.3379 264.165 97.7748 263.191V250.004C94.9308 252.481 92.9824 254.107 88.8792 254.107C84.7761 254.107 82.7517 252.416 79.8155 249.859C76.2822 246.784 71.4518 242.573 62.3935 242.573C53.3351 242.573 48.4993 246.784 44.9715 249.859C42.0353 252.416 40.0977 254.107 35.9077 254.107C31.7178 254.107 29.7802 252.416 26.844 249.859C25.6933 248.857 24.4016 247.737 22.8711 246.676V261.139C25.2971 262.728 28.2822 264.09 32.2497 264.607C32.445 264.634 32.6459 264.65 32.863 264.655Z" fill="#54AB65"/>
<path d="M177.015 172.569H97.7749V266.798H177.015V172.569Z" fill="#2B75A2"/>
<path d="M110.801 172.569H97.7749V266.26H110.801V172.569Z" fill="#54AB65"/>
<path d="M134.139 172.569H123.284V266.26H134.139V172.569Z" fill="#54AB65"/>
<path d="M155.848 172.569H144.993V266.26H155.848V172.569Z" fill="#54AB65"/>
<path d="M155.734 173.823C155.734 195.173 163.816 214.24 176.478 226.807V172.569H155.751C155.745 172.989 155.74 173.403 155.74 173.823H155.734Z" fill="#CA5858"/>
</g>
</g>
</g>
<defs>
<clipPath id="clip0_536_3415">
<rect width="200" height="290" rx="8" fill="white"/>
</clipPath>
</defs>
</svg>
