<svg width="200" height="290" viewBox="0 0 200 290" fill="none" xmlns="http://www.w3.org/2000/svg">
<g clip-path="url(#clip0_536_2999)">
<path d="M200 0H0V290H200V0Z" fill="#497FB3"/>
<mask id="mask0_536_2999" style="mask-type:luminance" maskUnits="userSpaceOnUse" x="29" y="35" width="142" height="221">
<path d="M99.9564 255.162C139.037 255.162 170.719 206.031 170.719 145.425C170.719 84.8193 139.037 35.6885 99.9564 35.6885C60.8753 35.6885 29.1938 84.8193 29.1938 145.425C29.1938 206.031 60.8753 255.162 99.9564 255.162Z" fill="white"/>
</mask>
<g mask="url(#mask0_536_2999)">
<path d="M39.913 140.439C42.5996 142.749 44.3744 144.273 48.2061 144.273C52.0379 144.273 53.8126 142.749 56.4992 140.439C59.7339 137.66 64.1573 133.859 72.4504 133.859H72.624C80.9171 133.859 85.3404 137.666 88.5752 140.439C91.2617 142.749 93.0365 144.273 96.8683 144.273C100.7 144.273 102.475 142.749 105.161 140.439C108.396 137.66 112.819 133.859 121.112 133.859C129.406 133.859 133.829 137.666 137.064 140.439C139.75 142.749 141.525 144.273 145.357 144.273C149.188 144.273 150.963 142.749 153.65 140.439C156.885 137.66 161.308 133.859 169.601 133.859C172.515 133.859 174.947 134.333 177.02 135.065V128.146C174.784 126.261 172.999 125.055 169.601 125.055C165.769 125.055 163.994 126.579 161.308 128.889C158.073 131.667 153.65 135.469 145.357 135.469C137.064 135.469 132.64 131.667 129.406 128.889C126.719 126.579 124.939 125.05 121.112 125.05C117.286 125.05 115.506 126.574 112.819 128.884C109.585 131.662 105.161 135.464 96.8683 135.464C95.9239 135.464 94.9849 135.41 94.0786 135.313C93.8832 135.307 93.6987 135.291 93.5196 135.27C87.2346 134.462 83.6362 131.371 80.7434 128.884C78.0677 126.584 76.3038 125.066 72.5209 125.05C68.7706 125.071 67.0067 126.584 64.331 128.884C61.4381 131.371 57.8398 134.462 51.5548 135.27C51.3757 135.291 51.1858 135.307 50.9958 135.313C50.0894 135.415 49.1505 135.464 48.2061 135.464C39.913 135.464 35.4897 131.662 32.255 128.884C29.5684 126.574 27.7882 125.044 23.9619 125.044C23.582 125.044 23.2238 125.066 22.8818 125.093V133.88C23.24 133.864 23.5928 133.848 23.9619 133.848C32.255 133.848 36.6783 137.655 39.913 140.428V140.439Z" fill="#2B426E"/>
<path d="M39.913 121.948C42.5996 124.258 44.3743 125.782 48.2061 125.782C52.0378 125.782 53.8126 124.258 56.4991 121.948C59.7339 119.17 64.1572 115.369 72.4503 115.369H72.624C80.9171 115.369 85.3404 119.175 88.5751 121.948C91.2617 124.258 93.0365 125.782 96.8682 125.782C100.7 125.782 102.475 124.258 105.161 121.948C108.396 119.17 112.819 115.369 121.112 115.369C129.406 115.369 133.829 119.175 137.064 121.948C139.75 124.258 141.525 125.782 145.357 125.782C149.188 125.782 150.963 124.258 153.65 121.948C156.884 119.17 161.308 115.369 169.601 115.369C172.515 115.369 174.947 115.842 177.02 116.575V30.4707H22.8872V115.401C23.2454 115.385 23.5982 115.369 23.9673 115.369C32.2603 115.369 36.6837 119.175 39.9184 121.948H39.913Z" fill="#2B426E"/>
<path d="M161.308 147.374C158.073 150.153 153.65 153.954 145.357 153.954C137.064 153.954 132.64 150.153 129.406 147.374C126.719 145.064 124.939 143.535 121.112 143.535C117.286 143.535 115.506 145.059 112.819 147.369C109.585 150.147 105.161 153.949 96.8683 153.949C95.9239 153.949 94.9849 153.895 94.0786 153.798C93.8832 153.793 93.6987 153.777 93.5196 153.755C87.2346 152.947 83.6362 149.857 80.7434 147.369C78.0677 145.07 76.3038 143.551 72.5209 143.535C68.7706 143.557 67.0067 145.07 64.331 147.369C61.4381 149.857 57.8398 152.947 51.5548 153.755C51.3757 153.777 51.1858 153.793 50.9958 153.798C50.0894 153.9 49.1505 153.949 48.2061 153.949C39.913 153.949 35.4897 150.147 32.255 147.369C29.5684 145.059 27.7882 143.53 23.9619 143.53C23.582 143.53 23.2238 143.551 22.8818 143.578V260.385H177.02V146.621C174.784 144.736 172.999 143.53 169.601 143.53C165.769 143.53 163.994 145.054 161.308 147.364V147.374Z" fill="#2B426E"/>
<path d="M32.2603 128.889C35.4896 131.668 39.9184 135.469 48.2115 135.469C49.1559 135.469 50.0894 135.415 51.0012 135.318C51.1966 135.313 51.3811 135.297 51.5602 135.275C57.8451 134.468 61.4435 131.377 64.3363 128.889C67.012 126.59 68.7759 125.072 72.5263 125.055C76.3146 125.077 78.0785 126.59 80.7488 128.889C83.6416 131.377 87.24 134.468 93.5249 135.275C93.704 135.297 93.8886 135.313 94.084 135.318C94.9903 135.421 95.9293 135.469 96.8736 135.469C105.167 135.469 109.59 131.662 112.825 128.889C115.511 126.579 117.286 125.055 121.118 125.055C124.95 125.055 126.724 126.579 129.411 128.895C132.64 131.673 137.069 135.474 145.362 135.474C153.655 135.474 158.079 131.673 161.313 128.895C164 126.585 165.775 125.061 169.606 125.061C173.004 125.061 174.79 126.267 177.026 128.151V116.586C174.952 115.853 172.521 115.379 169.606 115.379C161.313 115.379 156.89 119.186 153.655 121.959C150.969 124.269 149.194 125.793 145.362 125.793C141.53 125.793 139.756 124.269 137.069 121.959C133.834 119.181 129.411 115.379 121.118 115.379C112.825 115.379 108.401 119.186 105.167 121.959C102.48 124.269 100.705 125.793 96.8736 125.793C93.0419 125.793 91.2671 124.269 88.5806 121.959C85.3458 119.181 80.9225 115.379 72.6294 115.379H72.4557C64.1626 115.379 59.7393 119.186 56.5046 121.959C53.818 124.269 52.0432 125.793 48.2115 125.793C44.3797 125.793 42.605 124.269 39.9184 121.959C36.6837 119.181 32.2603 115.379 23.9673 115.379C23.5982 115.379 23.24 115.396 22.8872 115.412V125.115C23.2291 125.082 23.5873 125.066 23.9673 125.066C27.799 125.066 29.5738 126.59 32.2603 128.905V128.889Z" fill="#EEAE6B"/>
<path d="M169.606 133.854C161.313 133.854 156.89 137.66 153.655 140.433C150.969 142.743 149.194 144.267 145.362 144.267C141.53 144.267 139.756 142.743 137.069 140.433C133.834 137.655 129.411 133.854 121.118 133.854C112.825 133.854 108.401 137.66 105.167 140.433C102.48 142.743 100.705 144.267 96.8736 144.267C93.0419 144.267 91.2671 142.743 88.5806 140.433C85.3458 137.655 80.9225 133.854 72.6294 133.854H72.4557C64.1626 133.854 59.7393 137.66 56.5046 140.433C53.818 142.743 52.0432 144.267 48.2115 144.267C44.3797 144.267 42.605 142.743 39.9184 140.433C36.6837 137.655 32.2603 133.854 23.9673 133.854C23.5982 133.854 23.24 133.87 22.8872 133.886V143.589C23.2291 143.556 23.5873 143.54 23.9673 143.54C27.799 143.54 29.5738 145.064 32.2603 147.379C35.4896 150.158 39.9184 153.959 48.2115 153.959C49.1559 153.959 50.0894 153.906 51.0012 153.809C51.1966 153.803 51.3811 153.787 51.5602 153.766C57.8451 152.958 61.4435 149.867 64.3363 147.379C67.012 145.08 68.7759 143.562 72.5263 143.546C76.3146 143.567 78.0785 145.08 80.7488 147.379C83.6416 149.867 87.24 152.958 93.5249 153.766C93.704 153.787 93.8886 153.803 94.084 153.809C94.9903 153.911 95.9293 153.959 96.8736 153.959C105.167 153.959 109.59 150.152 112.825 147.379C115.511 145.069 117.286 143.546 121.118 143.546C124.95 143.546 126.724 145.069 129.411 147.385C132.64 150.163 137.069 153.965 145.362 153.965C153.655 153.965 158.079 150.163 161.313 147.385C164 145.075 165.775 143.551 169.606 143.551C173.004 143.551 174.79 144.757 177.026 146.642V135.076C174.952 134.344 172.521 133.87 169.606 133.87V133.854Z" fill="#EEAE6B"/>
<path d="M22.8872 38.0091H98.8709V76.7777H177.026V30.4546H22.9252L22.8872 38.0091Z" fill="#F4E6D8"/>
<path d="M48.939 45.0088H30.4858V63.3162H48.939V45.0088Z" fill="#FFF1E2"/>
<path d="M70.6485 45.0088H52.1953V63.3162H70.6485V45.0088Z" fill="#FFF1E2"/>
<path d="M92.3585 45.0088H73.9053V63.3162H92.3585V45.0088Z" fill="#FFF1E2"/>
<path d="M48.939 66.5469H30.4858V84.8543H48.939V66.5469Z" fill="#FFF1E2"/>
<path d="M70.6485 66.5469H52.1953V84.8543H70.6485V66.5469Z" fill="#FFF1E2"/>
<path d="M92.3585 66.5469H73.9053V84.8543H92.3585V66.5469Z" fill="#FFF1E2"/>
<path d="M48.939 88.085H30.4858V106.392H48.939V88.085Z" fill="#FFF1E2"/>
<path d="M70.6485 88.085H52.1953V106.392H70.6485V88.085Z" fill="#FFF1E2"/>
<path d="M92.3585 88.085H73.9053V106.392H92.3585V88.085Z" fill="#FFF1E2"/>
<path d="M137.948 115.546C159.528 115.546 177.026 98.1867 177.026 76.7778H98.8711C98.8711 98.1867 116.369 115.546 137.948 115.546Z" fill="#C1352E"/>
<path d="M137.948 38.0093C116.369 38.0093 98.8711 55.369 98.8711 76.7779H177.026C177.026 55.369 159.528 38.0093 137.948 38.0093Z" fill="#EEAE6B"/>
<path d="M99.9564 157.007H22.8872V260.39H99.9564V157.007Z" fill="#CA5858"/>
<path d="M61.6931 217.852C77.4299 217.852 90.187 205.196 90.187 189.584C90.187 173.971 77.4299 161.315 61.6931 161.315C45.9564 161.315 33.1992 173.971 33.1992 189.584C33.1992 205.196 45.9564 217.852 61.6931 217.852Z" fill="#C1352E"/>
<path d="M42.4258 253.929C52.6173 253.929 60.879 245.732 60.879 235.621C60.879 225.51 52.6173 217.314 42.4258 217.314C32.2344 217.314 23.9727 225.51 23.9727 235.621C23.9727 245.732 32.2344 253.929 42.4258 253.929Z" fill="#3C693C"/>
<path d="M65.2212 233.737C65.2212 235.072 65.3623 236.375 65.6228 237.635C68.9661 240.408 73.2755 242.083 77.9756 242.083C88.6187 242.083 97.2429 233.527 97.2429 222.968C97.2429 221.632 97.1018 220.329 96.8413 219.069C93.498 216.296 89.1886 214.622 84.4885 214.622C73.8453 214.622 65.2212 223.178 65.2212 233.737Z" fill="#3C693C"/>
<path d="M177.026 157.007H99.9565V260.39H177.026V157.007Z" fill="#231F20"/>
<path d="M120.309 194.699C130.051 194.699 137.949 186.864 137.949 177.199C137.949 167.535 130.051 159.7 120.309 159.7C110.568 159.7 102.67 167.535 102.67 177.199C102.67 186.864 110.568 194.699 120.309 194.699Z" fill="#3C693C"/>
<path d="M118.41 258.237C127.702 258.237 135.235 250.763 135.235 241.545C135.235 232.326 127.702 224.853 118.41 224.853C109.118 224.853 101.585 232.326 101.585 241.545C101.585 250.763 109.118 258.237 118.41 258.237Z" fill="#C1352E"/>
<path d="M152.874 185.546C159.319 185.546 164.543 180.362 164.543 173.969C164.543 167.575 159.319 162.392 152.874 162.392C146.429 162.392 141.205 167.575 141.205 173.969C141.205 180.362 146.429 185.546 152.874 185.546Z" fill="#C1352E"/>
<path d="M110.54 215.16C115.486 215.16 119.495 211.182 119.495 206.276C119.495 201.369 115.486 197.391 110.54 197.391C105.594 197.391 101.585 201.369 101.585 206.276C101.585 211.182 105.594 215.16 110.54 215.16Z" fill="#CA5858"/>
<path d="M150.16 233.468C162.9 233.468 173.227 223.222 173.227 210.583C173.227 197.945 162.9 187.699 150.16 187.699C137.421 187.699 127.094 197.945 127.094 210.583C127.094 223.222 137.421 233.468 150.16 233.468Z" fill="#EEAE6B"/>
<path d="M115.153 217.853H117.612V231.443H115.712L115.153 217.853Z" fill="#3C693C"/>
</g>
</g>
<defs>
<clipPath id="clip0_536_2999">
<rect width="200" height="290" rx="8" fill="white"/>
</clipPath>
</defs>
</svg>
