<svg width="200" height="290" viewBox="0 0 200 290" fill="none" xmlns="http://www.w3.org/2000/svg">
<g clip-path="url(#clip0_537_3427)">
<path d="M200 0H0V290H200V0Z" fill="#F2A543"/>
<mask id="mask0_537_3427" style="mask-type:luminance" maskUnits="userSpaceOnUse" x="29" y="34" width="142" height="221">
<path d="M99.9891 254.172C139.07 254.172 170.752 205.041 170.752 144.435C170.752 83.829 139.07 34.6982 99.9891 34.6982C60.908 34.6982 29.2266 83.829 29.2266 144.435C29.2266 205.041 60.908 254.172 99.9891 254.172Z" fill="white"/>
</mask>
<g mask="url(#mask0_537_3427)">
<path d="M177.33 30.0137H22.6484V258.856H177.33V30.0137Z" fill="#F68C47"/>
<path d="M44.3582 126.396H107.881C114.16 126.396 119.256 131.453 119.256 137.682V179.703H44.3582V126.396Z" fill="#2B426E"/>
<path d="M44.3581 59.6289H22.6484V258.856H44.3581V59.6289Z" fill="#2B5A34"/>
<path d="M161.183 56.9365H124.277V100.013H161.183V56.9365Z" fill="#1E2639"/>
<path d="M156.57 61.2441H128.89V95.7051H156.57V61.2441Z" fill="#2B75A2"/>
<path d="M44.3582 149.55H97.2917C98.9307 149.55 100.26 150.87 100.26 152.496V164.907C100.26 166.533 98.9307 167.852 97.2917 167.852H44.3582V149.545V149.55Z" fill="#EEAE6B"/>
<path d="M44.3582 167.857H115.343C117.503 167.857 119.256 169.597 119.256 171.74V191.549H44.3582V167.857Z" fill="#E4BF9B"/>
<path d="M119.256 191.55H44.3582V215.242H119.256V191.55Z" fill="#2B426E"/>
<path d="M109.487 215.241H44.3582V228.703H109.487V215.241Z" fill="#F68C47"/>
<path d="M119.256 215.241H109.487V228.703H119.256V215.241Z" fill="#231F20"/>
<path d="M177.33 228.703H44.3582V258.856H177.33V228.703Z" fill="#E4BF9B"/>
<path d="M142.958 163.55H153.091C155.685 163.55 157.796 165.639 157.796 168.218V171.627H138.258V168.218C138.258 165.644 140.363 163.55 142.963 163.55H142.958Z" fill="#231F20"/>
<path d="M150.735 147.935H145.308V166.78H150.735V147.935Z" fill="#231F20"/>
<path d="M140.966 124.243H155.077L163.218 147.935H132.825L140.966 124.243Z" fill="#9FABA3"/>
<path d="M177.329 167.857H124.684V228.703H177.329V167.857Z" fill="#2B5A34"/>
</g>
</g>
<defs>
<clipPath id="clip0_537_3427">
<rect width="200" height="290" rx="8" fill="white"/>
</clipPath>
</defs>
</svg>
