<svg width="200" height="290" viewBox="0 0 200 290" fill="none" xmlns="http://www.w3.org/2000/svg">
<g clip-path="url(#clip0_537_3106)">
<path d="M200 0H0V290H200V0Z" fill="#F2A543"/>
<mask id="mask0_537_3106" style="mask-type:luminance" maskUnits="userSpaceOnUse" x="29" y="35" width="142" height="220">
<path d="M99.765 254.47C138.847 254.47 170.53 205.34 170.53 144.735C170.53 84.13 138.847 35 99.765 35C60.6826 35 29 84.13 29 144.735C29 205.34 60.6826 254.47 99.765 254.47Z" fill="white"/>
</mask>
<g mask="url(#mask0_537_3106)">
<path d="M176.022 30.0469H23.5068V259.424H176.022V30.0469Z" fill="#2B426E"/>
<mask id="mask1_537_3106" style="mask-type:luminance" maskUnits="userSpaceOnUse" x="23" y="30" width="154" height="230">
<path d="M176.022 30.0469H23.5068V259.424H176.022V30.0469Z" fill="white"/>
</mask>
<g mask="url(#mask1_537_3106)">
<path d="M176.022 30.0469H21.8784V138.274H176.022V30.0469Z" fill="#224A77"/>
<mask id="mask2_537_3106" style="mask-type:luminance" maskUnits="userSpaceOnUse" x="21" y="30" width="156" height="109">
<path d="M176.022 30.0469H21.8784V138.274H176.022V30.0469Z" fill="white"/>
</mask>
<g mask="url(#mask2_537_3106)">
<path d="M265.079 51.2993C239.954 26.3693 205.245 10.959 166.899 10.959C128.553 10.959 93.8597 26.3693 68.7353 51.2993C43.6056 76.2239 28.0718 110.647 28.0718 148.693C28.0718 186.74 43.6056 221.162 68.7353 246.082C93.8597 271.006 128.564 286.422 166.899 286.422C205.234 286.422 239.954 271.001 265.079 246.082C290.203 221.157 305.742 186.718 305.742 148.693C305.742 110.668 290.198 76.2239 265.079 51.2993ZM166.893 272.035C98.2343 272.035 42.5743 216.806 42.5743 148.704C42.5743 80.6014 98.2397 25.3516 166.893 25.3516C235.547 25.3516 291.229 80.5691 291.229 148.698C291.229 216.828 235.558 272.029 166.893 272.029V272.035Z" fill="#AA2A2F"/>
<path d="M166.898 103.108C141.524 103.146 120.997 123.521 120.948 148.699C120.997 173.871 141.524 194.235 166.898 194.283C192.283 194.235 212.81 173.871 212.859 148.699C212.81 123.515 192.283 103.146 166.898 103.108ZM166.904 178.539C150.29 178.539 136.819 165.175 136.819 148.693C136.819 132.211 150.29 118.847 166.904 118.847C183.518 118.847 196.989 132.211 196.989 148.693C196.989 165.175 183.518 178.539 166.904 178.539Z" fill="#AA2A2F"/>
<path d="M166.893 41.6719C107.314 41.7742 59.128 89.5773 59.0249 148.699C59.128 207.787 107.314 255.601 166.893 255.709C226.472 255.601 274.669 207.787 274.777 148.699C274.669 89.5773 226.472 41.7742 166.893 41.6719ZM166.898 241.322C115.342 241.322 73.5383 199.845 73.5383 148.693C73.5383 97.5409 115.342 56.0645 166.898 56.0645C218.455 56.0645 260.269 97.5301 260.269 148.693C260.269 199.856 218.466 241.322 166.898 241.322Z" fill="#E8A935"/>
<path d="M166.898 72.3848C124.422 72.4709 90.0707 106.544 89.9893 148.693C90.0707 190.832 124.422 224.91 166.898 224.991C209.386 224.91 243.742 190.832 243.818 148.693C243.748 106.544 209.386 72.4763 166.898 72.3848ZM166.898 210.603C132.444 210.603 104.497 182.89 104.497 148.699C104.497 114.507 132.444 86.7828 166.898 86.7828C201.353 86.7828 229.31 114.507 229.31 148.699C229.31 182.89 201.374 210.603 166.898 210.603Z" fill="#224A78"/>
<path d="M166.893 25.3516C98.2342 25.3516 42.5742 80.569 42.5742 148.698C42.5742 216.828 98.2396 272.029 166.893 272.029C235.547 272.029 291.229 216.801 291.229 148.698C291.229 80.596 235.563 25.3516 166.893 25.3516ZM166.893 255.709C107.315 255.601 59.1284 207.787 59.0253 148.698C59.1284 89.5772 107.315 41.7741 166.893 41.6718C226.472 41.7741 274.669 89.5772 274.778 148.698C274.669 207.787 226.472 255.601 166.893 255.709Z" fill="#EA7D2D"/>
<path d="M166.899 56.0645C115.342 56.0645 73.5386 97.5301 73.5386 148.693C73.5386 199.856 115.342 241.322 166.899 241.322C218.455 241.322 260.27 199.845 260.27 148.693C260.27 97.5408 218.466 56.0645 166.899 56.0645ZM166.899 224.991C124.422 224.91 90.071 190.832 89.9896 148.693C90.071 106.544 124.422 72.4762 166.899 72.3847C209.386 72.4709 243.743 106.544 243.819 148.693C243.748 190.832 209.386 224.91 166.899 224.991Z" fill="#33693B"/>
<path d="M166.898 86.7822C132.444 86.7822 104.497 114.507 104.497 148.698C104.497 182.889 132.444 210.603 166.898 210.603C201.353 210.603 229.31 182.889 229.31 148.698C229.31 114.507 201.374 86.7822 166.898 86.7822ZM166.898 194.283C141.524 194.234 120.997 173.87 120.948 148.698C120.997 123.515 141.524 103.146 166.898 103.108C192.283 103.146 212.81 123.52 212.859 148.698C212.81 173.87 192.283 194.234 166.898 194.283Z" fill="#522952"/>
<path d="M166.904 178.539C183.519 178.539 196.989 165.176 196.989 148.693C196.989 132.209 183.519 118.847 166.904 118.847C150.288 118.847 136.818 132.209 136.818 148.693C136.818 165.176 150.288 178.539 166.904 178.539Z" fill="#E8AA37"/>
</g>
<path d="M122.821 157.055H122.837C122.05 155.359 119.206 150.895 111.374 150.906C111.287 150.906 111.2 150.906 111.119 150.911C107.135 150.981 104.161 152.645 102.223 154.228C102.842 153.614 103.461 153.017 104.085 152.441L103.032 150.965C103.618 151.041 104.259 151.385 104.823 151.773C106.321 150.432 107.814 149.21 109.219 148.128L108.194 146.782C108.747 146.852 109.388 147.255 109.876 147.627C111.776 146.195 113.491 145.026 114.821 144.165L113.871 142.921C114.408 142.985 115.027 143.379 115.499 143.734C116.807 142.905 117.6 142.463 117.6 142.463C115.912 141.639 110.864 139.954 104.796 144.865C99.8839 148.844 99.4822 154.379 99.5094 156.344C99.4931 156.339 99.4714 156.339 99.4551 156.334C99.1511 154.363 97.8323 149.005 92.3558 145.898C85.5605 142.038 80.8602 144.509 79.3296 145.597C79.3296 145.597 80.5888 146.055 82.6078 146.943C83.0149 146.523 83.5468 146.065 84.0462 145.92L83.3297 147.266C84.4749 147.783 85.8101 148.418 87.2647 149.172C87.8346 148.499 88.7302 147.595 89.5932 147.336L88.3991 149.77C89.3109 150.26 90.2608 150.793 91.2323 151.358C90.1522 151.078 88.9744 150.911 87.6881 150.911C79.856 150.911 77.0174 155.38 76.2358 157.077C76.2358 157.077 77.5602 156.85 79.7584 156.63C79.8995 156.064 80.1329 155.407 80.4965 155.03L80.5508 156.554C81.5169 156.468 82.6133 156.382 83.8182 156.317C83.9593 155.72 84.1981 154.987 84.5889 154.584L84.6486 156.28C85.7396 156.231 86.9119 156.199 88.1331 156.199C88.2471 155.434 88.4371 154.573 88.7682 154.072L88.9147 156.204C89.5932 156.204 90.2879 156.22 90.9935 156.247C91.1237 155.924 91.2866 155.623 91.4874 155.413L91.52 156.269C92.5729 156.312 93.6476 156.382 94.7385 156.479C92.3015 156.544 89.2458 157.19 86.3637 159.397C80.16 164.141 80.6593 169.396 81.0827 171.216C81.0827 171.216 81.9891 170.236 83.5957 168.729C83.3623 168.19 83.1397 167.533 83.194 167.016L84.1764 168.19C84.8874 167.539 85.707 166.806 86.6188 166.026C86.3637 165.471 86.0978 164.744 86.1629 164.184L87.2539 165.487C87.7695 165.056 88.3122 164.609 88.8821 164.157C88.4805 163.376 88.0083 162.24 88.0951 161.368L89.8808 163.376C90.6895 162.757 91.5362 162.127 92.4264 161.497C92.1821 160.948 91.9379 160.259 91.9976 159.72L93.094 161.029C93.8104 160.533 94.5594 160.049 95.3193 159.564V159.575C95.3193 159.58 95.3247 159.591 95.3301 159.596C95.3573 159.661 95.3844 159.726 95.4115 159.79C95.4224 159.812 95.4333 159.833 95.4495 159.855C95.4767 159.903 95.5038 159.946 95.5309 159.995C95.5472 160.022 95.5635 160.043 95.5798 160.065C95.6069 160.108 95.6395 160.146 95.6721 160.183C95.6884 160.205 95.7101 160.226 95.7318 160.248C95.7698 160.286 95.8078 160.323 95.8457 160.361C95.862 160.377 95.8837 160.399 95.9 160.415C95.9597 160.469 96.0249 160.517 96.0954 160.56C96.7087 160.953 97.4795 160.953 98.1471 160.636C98.2882 160.862 98.4564 161.056 98.6518 161.223C98.6627 161.233 98.679 161.239 98.6898 161.25C98.7332 161.287 98.7766 161.32 98.8201 161.352C98.8418 161.368 98.8635 161.384 98.8906 161.4C98.9395 161.433 98.9938 161.465 99.0426 161.492C99.0589 161.503 99.0806 161.513 99.0969 161.524C99.1674 161.562 99.2434 161.594 99.3194 161.626C99.3248 161.626 99.3357 161.626 99.3411 161.632C99.3737 161.643 99.4008 161.653 99.4334 161.664C99.4877 162.025 99.5419 162.402 99.5962 162.795C99.6451 163.183 99.6993 163.586 99.7428 164.006C99.7536 164.082 99.759 164.162 99.7699 164.238C99.8133 164.652 99.8567 165.078 99.8947 165.514C99.9762 166.483 100.041 167.501 100.074 168.556C100.106 169.612 100.112 170.699 100.074 171.798C100.058 172.336 100.025 172.88 99.9924 173.424C99.9924 173.44 99.9924 173.456 99.9924 173.472C99.9544 174.021 99.9056 174.565 99.8513 175.114C99.6722 176.767 99.3954 178.404 99.0209 179.939C99.0209 179.955 99.0155 179.971 99.01 179.982C98.8906 180.483 98.7604 180.967 98.6192 181.447C98.3316 182.427 98.0005 183.347 97.6531 184.203C97.4035 184.812 97.1429 185.383 96.877 185.916C96.7956 186.083 96.7087 186.244 96.6273 186.4C96.6002 186.449 96.5785 186.497 96.5513 186.546C96.4591 186.723 96.3614 186.89 96.2691 187.057C96.1768 187.224 96.0846 187.386 95.9869 187.536C95.8946 187.693 95.8023 187.838 95.7101 187.989C95.6178 188.129 95.5255 188.269 95.4387 188.403C95.3953 188.468 95.3518 188.538 95.3084 188.602C95.265 188.667 95.2216 188.726 95.1782 188.791C95.0913 188.915 95.0099 189.033 94.9285 189.146C94.8688 189.227 94.8091 189.302 94.7548 189.383C94.6571 189.512 94.5648 189.642 94.478 189.755C94.3369 189.932 94.2066 190.094 94.0981 190.229C93.9895 190.369 93.8864 190.476 93.805 190.573C93.6476 190.756 93.5607 190.859 93.5607 190.859L93.5173 190.907C93.4793 190.955 93.4359 191.004 93.3979 191.058C93.3979 191.058 93.3979 191.063 93.3925 191.069C92.9528 191.682 93.2785 192.544 94.0112 192.738C94.5214 192.872 95.2541 192.959 96.2691 192.899C96.3559 192.899 96.4482 192.889 96.5351 192.878C96.5622 192.878 96.5839 192.878 96.6056 192.872C96.7793 192.856 96.9638 192.835 97.1538 192.813C97.1972 192.808 97.2406 192.802 97.2895 192.797C97.4849 192.77 97.6911 192.738 97.9028 192.7C97.9842 192.582 98.0711 192.452 98.1633 192.312C98.3099 192.081 98.4727 191.817 98.6464 191.537C98.7278 191.392 98.8146 191.246 98.9069 191.09C98.9123 191.079 98.9178 191.069 98.9232 191.063C98.9612 190.993 99.0046 190.929 99.0426 190.859C99.086 190.778 99.1294 190.697 99.1783 190.611C99.2706 190.444 99.3628 190.272 99.4551 190.089C99.5474 189.906 99.6396 189.722 99.7319 189.529C99.8296 189.34 99.9164 189.141 100.014 188.936C100.068 188.818 100.123 188.689 100.177 188.565C100.215 188.479 100.253 188.398 100.286 188.312C100.334 188.199 100.383 188.091 100.427 187.973C100.47 187.865 100.513 187.763 100.562 187.649C100.834 186.976 101.089 186.26 101.328 185.501C101.458 185.086 101.577 184.661 101.691 184.23C101.702 184.187 101.713 184.139 101.724 184.096C101.751 183.993 101.778 183.886 101.805 183.783C101.822 183.724 101.832 183.67 101.849 183.611C101.887 183.455 101.93 183.293 101.963 183.137C102.028 182.863 102.087 182.588 102.142 182.308C102.256 181.748 102.359 181.183 102.446 180.607C102.5 180.251 102.543 179.885 102.587 179.524C102.587 179.524 102.592 179.524 102.598 179.524C102.609 179.422 102.625 179.32 102.636 179.217H102.63C102.647 179.083 102.668 178.943 102.679 178.808C102.701 178.604 102.723 178.404 102.739 178.2H102.728C102.761 177.828 102.799 177.462 102.82 177.085C102.847 176.633 102.864 176.175 102.88 175.718C102.88 175.718 102.88 175.718 102.885 175.718C102.885 175.578 102.891 175.438 102.896 175.298C102.896 175.271 102.896 175.249 102.896 175.222C102.918 174.059 102.896 172.896 102.836 171.76C102.826 171.577 102.809 171.399 102.798 171.222C102.798 171.222 102.799 171.222 102.804 171.222C102.793 171.065 102.782 170.904 102.771 170.748H102.766C102.706 169.94 102.636 169.138 102.549 168.368C102.484 167.792 102.408 167.226 102.326 166.677C102.299 166.505 102.277 166.338 102.25 166.171C102.201 165.853 102.147 165.536 102.098 165.223C102.011 164.728 101.925 164.243 101.832 163.78C101.74 163.317 101.648 162.87 101.55 162.439C101.539 162.396 101.534 162.359 101.523 162.316C101.496 162.186 101.469 162.063 101.436 161.939C101.387 161.723 101.338 161.508 101.29 161.303C101.501 161.126 101.68 160.905 101.811 160.657C101.86 160.679 101.908 160.695 101.957 160.711C101.984 160.722 102.011 160.727 102.039 160.738C102.098 160.754 102.153 160.77 102.212 160.781C102.234 160.781 102.256 160.792 102.277 160.797C102.359 160.813 102.44 160.824 102.516 160.83C102.527 160.83 102.533 160.83 102.543 160.83C102.614 160.83 102.685 160.835 102.755 160.83C102.782 160.83 102.804 160.83 102.831 160.83C102.885 160.83 102.94 160.819 102.994 160.813C103.021 160.813 103.054 160.803 103.081 160.797C103.13 160.786 103.178 160.776 103.233 160.76C103.26 160.754 103.287 160.743 103.314 160.733C103.368 160.716 103.417 160.695 103.466 160.673C103.488 160.663 103.515 160.657 103.537 160.641C103.607 160.609 103.683 160.571 103.748 160.523C104.302 160.167 104.617 159.57 104.66 158.918C106.185 159.559 107.645 160.243 109.013 160.932L110.424 158.638C110.663 159.478 110.397 160.668 110.142 161.508C110.983 161.944 111.787 162.386 112.541 162.811L113.469 161.19C113.643 161.783 113.469 162.639 113.301 163.247C113.947 163.619 114.555 163.985 115.125 164.329L116.053 162.709C116.232 163.312 116.102 164.146 115.933 164.83C116.519 165.196 117.051 165.541 117.524 165.853L118.305 164.496C118.457 165.008 118.338 165.729 118.191 166.3C119.477 167.167 120.199 167.716 120.199 167.716C120.232 167.135 120.21 166.219 119.955 165.126C119.906 164.906 119.841 164.685 119.771 164.453C119.7 164.222 119.619 163.985 119.521 163.743C119.423 163.5 119.32 163.253 119.201 163.005C119.022 162.628 118.81 162.246 118.56 161.863C117.486 160.194 115.743 158.455 112.921 156.996C112.27 156.657 111.624 156.387 110.989 156.167C112.443 156.167 113.822 156.21 115.087 156.274L115.277 153.442C115.939 154.137 116.264 155.483 116.411 156.35C117.616 156.43 118.691 156.522 119.602 156.619L119.657 155.057C120.031 155.445 120.265 156.134 120.4 156.705C121.573 156.84 122.37 156.958 122.685 157.007C122.734 157.028 122.783 157.044 122.832 157.05C122.832 157.044 122.826 157.033 122.821 157.028V157.055ZM106.066 155.434L106.126 154.535C106.354 154.772 106.538 155.084 106.69 155.429C106.478 155.429 106.272 155.429 106.066 155.429V155.434ZM94.2066 151.186L93.653 152.236C93.4468 152.139 93.2405 152.047 93.0234 151.961C93.387 151.622 93.805 151.304 94.2066 151.191V151.186ZM110.213 155.957L110.245 154.977C110.522 155.262 110.723 155.709 110.864 156.161C110.647 156.086 110.424 156.021 110.207 155.962L110.213 155.957Z" fill="#2B5A34"/>
<path d="M98.9504 250.809C117.535 250.809 132.602 235.863 132.602 217.426C132.602 198.988 117.535 184.042 98.9504 184.042C80.3654 184.042 65.2993 198.988 65.2993 217.426C65.2993 235.863 80.3654 250.809 98.9504 250.809Z" fill="#EFAC37"/>
<path d="M160.385 233.003C157.373 234.871 153.617 237.203 146.648 237.203C139.679 237.203 135.928 234.871 132.911 233.003C130.257 231.355 128.341 230.17 123.971 230.17C119.602 230.17 117.681 231.36 115.032 233.003C112.02 234.871 108.264 237.203 101.295 237.203C94.326 237.203 90.5755 234.871 87.5632 233.003C84.9091 231.355 82.9931 230.17 78.6239 230.17C74.2547 230.17 72.3388 231.36 69.6847 233.003C66.6669 234.871 62.9165 237.203 55.9529 237.203C48.9892 237.203 45.2333 234.871 42.221 233.003C39.5669 231.355 37.651 230.17 33.2818 230.17C28.9126 230.17 26.9912 231.36 24.3425 233.003C24.1526 233.121 23.9517 233.245 23.7563 233.363V245.188C26.1445 244.127 29.146 243.303 33.2818 243.303C40.2454 243.303 44.0013 245.635 47.019 247.503C49.6731 249.151 51.5891 250.335 55.9583 250.335C60.3275 250.335 62.2434 249.145 64.8975 247.503C67.9153 245.629 71.6657 243.303 78.6293 243.303C85.593 243.303 89.3489 245.635 92.3612 247.503C95.0153 249.151 96.9312 250.335 101.3 250.335C105.67 250.335 107.591 249.145 110.24 247.503C113.257 245.629 117.008 243.303 123.977 243.303C130.946 243.303 134.696 245.635 137.714 247.503C140.368 249.151 142.284 250.335 146.653 250.335C151.023 250.335 152.944 249.145 155.593 247.503C158.61 245.635 162.361 243.303 169.33 243.303C172.928 243.303 175.669 243.928 177.895 244.789V232.766C175.431 231.242 173.493 230.165 169.33 230.165C164.955 230.165 163.039 231.355 160.391 232.997L160.385 233.003Z" fill="#C1352E"/>
<path d="M169.33 208.056C164.955 208.056 163.039 209.246 160.391 210.888C157.378 212.757 153.622 215.088 146.653 215.088C139.684 215.088 135.934 212.757 132.916 210.888C130.262 209.241 128.346 208.056 123.977 208.056C119.608 208.056 117.686 209.246 115.038 210.888C112.025 212.757 108.269 215.088 101.3 215.088C94.3313 215.088 90.5808 212.757 87.5685 210.888C84.9144 209.241 82.9985 208.056 78.6293 208.056C74.2601 208.056 72.3441 209.246 69.69 210.888C66.6723 212.757 62.9218 215.088 55.9582 215.088C48.9946 215.088 45.2387 212.757 42.2264 210.888C39.5723 209.241 37.6564 208.056 33.2871 208.056C28.9179 208.056 26.9966 209.246 24.3479 210.888C24.1579 211.007 23.9571 211.131 23.7617 211.249V223.073C26.1499 222.013 29.1513 221.189 33.2871 221.189C40.2508 221.189 44.0067 223.52 47.0244 225.389C49.6785 227.036 51.5944 228.221 55.9636 228.221C60.3329 228.221 62.2488 227.031 64.9029 225.389C67.9206 223.515 71.6711 221.189 78.6347 221.189C85.5983 221.189 89.3542 223.52 92.3665 225.389C95.0206 227.036 96.9366 228.221 101.306 228.221C105.675 228.221 107.596 227.031 110.245 225.389C113.263 223.515 117.013 221.189 123.982 221.189C130.951 221.189 134.702 223.52 137.72 225.389C140.374 227.036 142.29 228.221 146.659 228.221C151.028 228.221 152.949 227.031 155.598 225.389C158.616 223.52 162.366 221.189 169.335 221.189C172.934 221.189 175.675 221.813 177.9 222.675V210.651C175.436 209.128 173.498 208.051 169.335 208.051L169.33 208.056Z" fill="#F68C47"/>
<path d="M33.277 208.056C37.6516 208.056 39.5675 209.246 42.2162 210.889C45.2339 212.757 48.9844 215.089 55.948 215.089C62.9116 215.089 66.6675 212.757 69.6798 210.889C72.3339 209.241 74.2499 208.056 78.6191 208.056C82.9883 208.056 84.9097 209.246 87.5583 210.889C90.5761 212.757 94.3265 215.089 101.29 215.089C108.254 215.089 112.01 212.757 115.027 210.889C117.681 209.241 119.597 208.056 123.967 208.056C128.336 208.056 130.257 209.246 132.906 210.889C135.924 212.757 139.674 215.089 146.643 215.089C153.612 215.089 157.363 212.757 160.38 210.889C163.034 209.241 164.95 208.056 169.32 208.056C173.689 208.056 175.42 209.133 177.884 210.657V200.572C175.659 199.711 172.918 199.086 169.32 199.086C162.356 199.086 158.6 201.417 155.582 203.286C152.928 204.933 151.012 206.118 146.643 206.118C142.274 206.118 140.353 204.928 137.704 203.286C134.686 201.412 130.936 199.086 123.967 199.086C116.998 199.086 113.247 201.417 110.229 203.286C107.575 204.933 105.659 206.118 101.29 206.118C96.9209 206.118 94.9996 204.928 92.3509 203.286C89.3332 201.412 85.5827 199.086 78.6191 199.086C71.6555 199.086 67.8996 201.417 64.8873 203.286C62.2332 204.933 60.3172 206.118 55.948 206.118C51.5788 206.118 49.6574 204.928 47.0088 203.286C43.991 201.412 40.2406 199.086 33.2715 199.086C29.1303 199.086 26.1342 199.91 23.7461 200.97V211.255C23.9469 211.131 24.1423 211.012 24.3323 210.894C26.9864 209.246 28.9023 208.062 33.2715 208.062L33.277 208.056Z" fill="#3C693C"/>
<path d="M155.593 225.399C152.939 227.047 151.023 228.231 146.653 228.231C142.284 228.231 140.363 227.041 137.714 225.399C134.696 223.525 130.946 221.199 123.977 221.199C117.008 221.199 113.257 223.531 110.24 225.399C107.586 227.047 105.67 228.231 101.3 228.231C96.9312 228.231 95.0098 227.041 92.3612 225.399C89.3434 223.525 85.5929 221.199 78.6293 221.199C71.6657 221.199 67.9098 223.531 64.8975 225.399C62.2434 227.047 60.3275 228.231 55.9583 228.231C51.5891 228.231 49.6677 227.041 47.019 225.399C44.0013 223.525 40.2508 221.199 33.2818 221.199C29.1405 221.199 26.1445 222.023 23.7563 223.084V233.368C23.9572 233.244 24.1526 233.126 24.3425 233.007C26.9966 231.36 28.9126 230.175 33.2818 230.175C37.651 230.175 39.5724 231.365 42.221 233.007C45.2388 234.876 48.9892 237.207 55.9528 237.207C62.9165 237.207 66.6724 234.876 69.6847 233.007C72.3388 231.36 74.2547 230.175 78.6239 230.175C82.9931 230.175 84.9145 231.365 87.5632 233.007C90.5809 234.876 94.3314 237.207 101.295 237.207C108.259 237.207 112.014 234.876 115.032 233.007C117.686 231.36 119.602 230.175 123.971 230.175C128.341 230.175 130.262 231.365 132.911 233.007C135.928 234.876 139.679 237.207 146.648 237.207C153.617 237.207 157.367 234.876 160.385 233.007C163.039 231.36 164.955 230.175 169.324 230.175C173.694 230.175 175.425 231.252 177.889 232.776V222.691C175.664 221.829 172.923 221.205 169.324 221.205C162.361 221.205 158.605 223.536 155.587 225.404L155.593 225.399Z" fill="#2B426E"/>
<path d="M155.593 247.503C152.939 249.15 151.023 250.335 146.653 250.335C142.284 250.335 140.363 249.145 137.714 247.503C134.696 245.629 130.946 243.303 123.977 243.303C117.008 243.303 113.257 245.634 110.24 247.503C107.586 249.15 105.67 250.335 101.3 250.335C96.9312 250.335 95.0098 249.145 92.3612 247.503C89.3434 245.629 85.5929 243.303 78.6293 243.303C71.6657 243.303 67.9098 245.634 64.8975 247.503C62.2434 249.15 60.3275 250.335 55.9583 250.335C51.5891 250.335 49.6677 249.145 47.019 247.503C44.0013 245.629 40.2508 243.303 33.2818 243.303C29.1405 243.303 26.1445 244.127 23.7563 245.187V255.472C23.9572 255.348 24.1526 255.229 24.3425 255.111C26.9966 253.463 28.9126 252.279 33.2818 252.279C37.651 252.279 39.5724 253.469 42.221 255.111C45.2388 256.979 48.9892 259.311 55.9528 259.311C62.9165 259.311 66.6724 256.979 69.6847 255.111C72.3388 253.463 74.2547 252.279 78.6239 252.279C82.9931 252.279 84.9145 253.469 87.5632 255.111C90.5809 256.979 94.3314 259.311 101.295 259.311C108.259 259.311 112.014 256.979 115.032 255.111C117.686 253.463 119.602 252.279 123.971 252.279C128.341 252.279 130.262 253.469 132.911 255.111C135.928 256.979 139.679 259.311 146.648 259.311C153.617 259.311 157.367 256.979 160.385 255.111C163.039 253.463 164.955 252.279 169.324 252.279C173.694 252.279 175.425 253.355 177.889 254.879V244.794C175.664 243.933 172.923 243.308 169.324 243.308C162.361 243.308 158.605 245.64 155.587 247.508L155.593 247.503Z" fill="#EEAE6B"/>
<path d="M178.193 250.271H23.5068V259.424H178.193V250.271Z" fill="#EEAE6B"/>
</g>
</g>
</g>
<defs>
<clipPath id="clip0_537_3106">
<rect width="200" height="290" rx="8" fill="white"/>
</clipPath>
</defs>
</svg>
