<svg width="200" height="290" viewBox="0 0 200 290" fill="none" xmlns="http://www.w3.org/2000/svg">
<g clip-path="url(#clip0_537_3322)">
<path d="M200 0H0V290H200V0Z" fill="#F2A543"/>
<mask id="mask0_537_3322" style="mask-type:luminance" maskUnits="userSpaceOnUse" x="29" y="34" width="142" height="221">
<path d="M99.7626 254.215C138.844 254.215 170.525 205.084 170.525 144.478C170.525 83.872 138.844 34.7412 99.7626 34.7412C60.6815 34.7412 29 83.872 29 144.478C29 205.084 60.6815 254.215 99.7626 254.215Z" fill="white"/>
</mask>
<g mask="url(#mask0_537_3322)">
<path d="M181.429 22.373H18.0962V266.583H181.429V22.373Z" fill="#EBD9C0"/>
<path d="M172.251 42.4844H27.4531V224.638H172.251V42.4844Z" fill="#2B426E"/>
<path d="M172.251 59.7197H27.4531V76.3848H172.251V59.7197Z" fill="#EEAE6B"/>
<path d="M46.6554 136.719H27.54V224.637H46.6554V136.719Z" fill="#2B5A34"/>
<path d="M171.762 136.719H152.647V224.637H171.762V136.719Z" fill="#962F34"/>
<path d="M152.647 136.719H46.6553V198.205H152.647V136.719Z" fill="#C1352E"/>
<path d="M117.895 224.638H81.4067L87.1978 198.205H112.104L117.895 224.638Z" fill="#231F20"/>
<path d="M108.05 103.97H91.2524V113.737H108.05V103.97Z" fill="#231F20"/>
<path d="M67.0729 135.426C81.9464 135.426 94.0037 123.464 94.0037 108.708C94.0037 93.9523 81.9464 81.9902 67.0729 81.9902C52.1994 81.9902 40.1421 93.9523 40.1421 108.708C40.1421 123.464 52.1994 135.426 67.0729 135.426Z" fill="#EEAE6B"/>
<path d="M131.649 135.426C146.522 135.426 158.579 123.464 158.579 108.708C158.579 93.9523 146.522 81.9902 131.649 81.9902C116.775 81.9902 104.718 93.9523 104.718 108.708C104.718 123.464 116.775 135.426 131.649 135.426Z" fill="#2B75A2"/>
<path d="M131.649 116.753C136.127 116.753 139.757 113.151 139.757 108.709C139.757 104.266 136.127 100.664 131.649 100.664C127.17 100.664 123.54 104.266 123.54 108.709C123.54 113.151 127.17 116.753 131.649 116.753Z" fill="#231F20"/>
<path d="M67.0729 116.753C71.5511 116.753 75.1814 113.151 75.1814 108.709C75.1814 104.266 71.5511 100.664 67.0729 100.664C62.5947 100.664 58.9644 104.266 58.9644 108.709C58.9644 113.151 62.5947 116.753 67.0729 116.753Z" fill="#231F20"/>
<path d="M50.8018 239.58H33.2387C32.3305 239.58 31.5942 240.311 31.5942 241.212V258.636C31.5942 259.537 32.3305 260.267 33.2387 260.267H50.8018C51.7101 260.267 52.4463 259.537 52.4463 258.636V241.212C52.4463 240.311 51.7101 239.58 50.8018 239.58Z" fill="#2B426E"/>
<path d="M74.5523 239.58H56.9892C56.081 239.58 55.3447 240.311 55.3447 241.212V258.636C55.3447 259.537 56.081 260.267 56.9892 260.267H74.5523C75.4606 260.267 76.1968 259.537 76.1968 258.636V241.212C76.1968 240.311 75.4606 239.58 74.5523 239.58Z" fill="#EEAE6B"/>
<path d="M98.297 239.58H80.7339C79.8256 239.58 79.0894 240.311 79.0894 241.212V258.636C79.0894 259.537 79.8256 260.267 80.7339 260.267H98.297C99.2052 260.267 99.9415 259.537 99.9415 258.636V241.212C99.9415 240.311 99.2052 239.58 98.297 239.58Z" fill="#962F34"/>
<path d="M117.608 259.69C125.125 259.69 131.219 253.644 131.219 246.186C131.219 238.728 125.125 232.682 117.608 232.682C110.09 232.682 103.996 238.728 103.996 246.186C103.996 253.644 110.09 259.69 117.608 259.69Z" fill="#C1352E"/>
<path d="M154.672 259.69C162.189 259.69 168.283 253.644 168.283 246.186C168.283 238.728 162.189 232.682 154.672 232.682C147.154 232.682 141.06 238.728 141.06 246.186C141.06 253.644 147.154 259.69 154.672 259.69Z" fill="#2B5A34"/>
</g>
</g>
<defs>
<clipPath id="clip0_537_3322">
<rect width="200" height="290" rx="8" fill="white"/>
</clipPath>
</defs>
</svg>
