<svg width="200" height="290" viewBox="0 0 200 290" fill="none" xmlns="http://www.w3.org/2000/svg">
<g clip-path="url(#clip0_537_3215)">
<path d="M200 0H0V290H200V0Z" fill="#F2A543"/>
<mask id="mask0_537_3215" style="mask-type:luminance" maskUnits="userSpaceOnUse" x="29" y="45" width="142" height="210">
<path d="M99.9784 254.916C139.059 254.916 170.741 208.101 170.741 150.352C170.741 92.6023 139.059 45.7871 99.9784 45.7871C60.8973 45.7871 29.2158 92.6023 29.2158 150.352C29.2158 208.101 60.8973 254.916 99.9784 254.916Z" fill="white"/>
</mask>
<g mask="url(#mask0_537_3215)">
<path d="M177.048 41.3232H22.9092V259.38H177.048V41.3232Z" fill="white"/>
<mask id="mask1_537_3215" style="mask-type:luminance" maskUnits="userSpaceOnUse" x="22" y="41" width="156" height="219">
<path d="M177.048 41.3232H22.9092V259.38H177.048V41.3232Z" fill="white"/>
</mask>
<g mask="url(#mask1_537_3215)">
<path d="M159.083 159.402C151.761 159.402 148.185 161.414 144.402 163.538C140.57 165.693 136.603 167.919 128.765 167.919C120.928 167.919 116.961 165.693 113.129 163.538C109.346 161.408 105.77 159.402 98.4479 159.402C91.1264 159.402 87.5497 161.414 83.7668 163.538C79.935 165.693 75.9676 167.919 68.1304 167.919C60.2933 167.919 56.3258 165.693 52.4941 163.538C48.7112 161.408 45.1345 159.402 37.8129 159.402C30.4914 159.402 26.9147 161.414 23.1318 163.538C22.7899 163.728 22.4479 163.923 22.1006 164.112V176.708C22.1006 176.708 22.1494 176.678 22.1766 176.667C26.0083 174.512 29.9758 172.286 37.8129 172.286C45.6501 172.286 49.6175 174.512 53.4493 176.667C57.2322 178.797 60.8089 180.803 68.1304 180.803C75.452 180.803 79.0287 178.791 82.8116 176.667C86.6433 174.512 90.6108 172.286 98.4479 172.286C106.285 172.286 110.253 174.512 114.084 176.667C117.867 178.797 121.444 180.803 128.765 180.803C136.087 180.803 139.664 178.791 143.447 176.667C147.278 174.512 151.246 172.286 159.083 172.286C166.92 172.286 170.888 174.512 174.719 176.667C175.756 177.247 176.776 177.822 177.856 178.345V165.662C176.38 165.005 175.061 164.266 173.764 163.538C169.981 161.408 166.405 159.402 159.083 159.402Z" fill="#231F20"/>
<path d="M159.083 173.907C151.761 173.907 148.185 175.918 144.402 178.043C140.57 180.198 136.603 182.424 128.765 182.424C120.928 182.424 116.961 180.198 113.129 178.043C109.346 175.913 105.77 173.907 98.4479 173.907C91.1264 173.907 87.5497 175.918 83.7668 178.043C79.935 180.198 75.9676 182.424 68.1304 182.424C60.2933 182.424 56.3258 180.198 52.4941 178.043C48.7112 175.913 45.1345 173.907 37.8129 173.907C30.4914 173.907 26.9147 175.918 23.1318 178.043C22.7899 178.232 22.4479 178.427 22.1006 178.617V191.213C22.1006 191.213 22.1494 191.182 22.1766 191.172C26.0083 189.017 29.9758 186.791 37.8129 186.791C45.6501 186.791 49.6175 189.017 53.4493 191.172C57.2322 193.301 60.8089 195.308 68.1304 195.308C75.452 195.308 79.0287 193.296 82.8116 191.172C86.6433 189.017 90.6108 186.791 98.4479 186.791C106.285 186.791 110.253 189.017 114.084 191.172C117.867 193.301 121.444 195.308 128.765 195.308C136.087 195.308 139.664 193.296 143.447 191.172C147.278 189.017 151.246 186.791 159.083 186.791C166.92 186.791 170.888 189.017 174.719 191.172C175.756 191.752 176.776 192.327 177.856 192.85V180.167C176.38 179.51 175.061 178.771 173.764 178.043C169.981 175.913 166.405 173.907 159.083 173.907Z" fill="#231F20"/>
<path d="M159.083 144.902C151.761 144.902 148.185 146.914 144.402 149.038C140.57 151.193 136.603 153.419 128.765 153.419C120.928 153.419 116.961 151.193 113.129 149.038C109.346 146.908 105.77 144.902 98.4479 144.902C91.1264 144.902 87.5497 146.914 83.7668 149.038C79.935 151.193 75.9676 153.419 68.1304 153.419C60.2933 153.419 56.3258 151.193 52.4941 149.038C48.7112 146.908 45.1345 144.902 37.8129 144.902C30.4914 144.902 26.9147 146.914 23.1318 149.038C22.7899 149.228 22.4479 149.423 22.1006 149.612V162.208C22.1006 162.208 22.1494 162.178 22.1766 162.167C26.0083 160.012 29.9758 157.786 37.8129 157.786C45.6501 157.786 49.6175 160.012 53.4493 162.167C57.2322 164.297 60.8089 166.303 68.1304 166.303C75.452 166.303 79.0287 164.291 82.8116 162.167C86.6433 160.012 90.6108 157.786 98.4479 157.786C106.285 157.786 110.253 160.012 114.084 162.167C117.867 164.297 121.444 166.303 128.765 166.303C136.087 166.303 139.664 164.291 143.447 162.167C147.278 160.012 151.246 157.786 159.083 157.786C166.92 157.786 170.888 160.012 174.719 162.167C175.756 162.747 176.776 163.322 177.856 163.845V151.162C176.38 150.505 175.061 149.766 173.764 149.038C169.981 146.908 166.405 144.902 159.083 144.902Z" fill="#231F20"/>
<path d="M173.764 134.539C169.981 132.409 166.405 130.403 159.083 130.403C151.761 130.403 148.185 132.415 144.402 134.539C140.57 136.694 136.603 138.92 128.765 138.92C120.928 138.92 116.961 136.694 113.129 134.539C109.346 132.409 105.77 130.403 98.4479 130.403C91.1264 130.403 87.5497 132.415 83.7668 134.539C79.935 136.694 75.9676 138.92 68.1304 138.92C60.2933 138.92 56.3258 136.694 52.4941 134.539C48.7112 132.409 45.1345 130.403 37.8129 130.403C30.4914 130.403 26.9147 132.415 23.1318 134.539C22.7899 134.729 22.4479 134.924 22.1006 135.113V147.709C22.1006 147.709 22.1494 147.679 22.1766 147.668C26.0083 145.513 29.9758 143.287 37.8129 143.287C45.6501 143.287 49.6175 145.513 53.4493 147.668C57.2322 149.798 60.8089 151.804 68.1304 151.804C75.452 151.804 79.0287 149.792 82.8116 147.668C86.6433 145.513 90.6108 143.287 98.4479 143.287C106.285 143.287 110.253 145.513 114.084 147.668C117.867 149.798 121.444 151.804 128.765 151.804C136.087 151.804 139.664 149.792 143.447 147.668C147.278 145.513 151.246 143.287 159.083 143.287C166.92 143.287 170.888 145.513 174.719 147.668C175.756 148.248 176.776 148.823 177.856 149.346V136.663C176.38 136.006 175.061 135.267 173.764 134.539Z" fill="#231F20"/>
<path d="M159.083 188.406C151.761 188.406 148.185 190.418 144.402 192.542C140.57 194.697 136.603 196.923 128.765 196.923C120.928 196.923 116.961 194.697 113.129 192.542C109.346 190.412 105.77 188.406 98.4479 188.406C91.1264 188.406 87.5497 190.418 83.7668 192.542C79.935 194.697 75.9676 196.923 68.1304 196.923C60.2933 196.923 56.3258 194.697 52.4941 192.542C48.7112 190.412 45.1345 188.406 37.8129 188.406C30.4914 188.406 26.9147 190.418 23.1318 192.542C22.7899 192.731 22.4479 192.926 22.1006 193.116V205.712C22.1006 205.712 22.1494 205.681 22.1766 205.671C26.0083 203.516 29.9758 201.29 37.8129 201.29C45.6501 201.29 49.6175 203.516 53.4493 205.671C57.2322 207.8 60.8089 209.807 68.1304 209.807C75.452 209.807 79.0287 207.795 82.8116 205.671C86.6433 203.516 90.6108 201.29 98.4479 201.29C106.285 201.29 110.253 203.516 114.084 205.671C117.867 207.8 121.444 209.807 128.765 209.807C136.087 209.807 139.664 207.795 143.447 205.671C147.278 203.516 151.246 201.29 159.083 201.29C166.92 201.29 170.888 203.516 174.719 205.671C175.756 206.251 176.776 206.826 177.856 207.349V194.666C176.38 194.009 175.061 193.27 173.764 192.542C169.981 190.412 166.405 188.406 159.083 188.406Z" fill="#231F20"/>
<path d="M159.083 246.415C151.761 246.415 148.185 248.426 144.402 250.55C140.57 252.705 136.603 254.932 128.765 254.932C120.928 254.932 116.961 252.705 113.129 250.55C109.346 248.421 105.77 246.415 98.4479 246.415C91.1264 246.415 87.5497 248.426 83.7668 250.55C79.935 252.705 75.9676 254.932 68.1304 254.932C60.2933 254.932 56.3258 252.705 52.4941 250.55C48.7112 248.421 45.1345 246.415 37.8129 246.415C30.4914 246.415 26.9147 248.426 23.1318 250.55C22.7899 250.74 22.4479 250.935 22.1006 251.125V261.433H26.5456C29.3679 260.212 32.798 259.298 37.8129 259.298C42.8279 259.298 46.2526 260.212 49.0802 261.433H87.1861C90.0083 260.212 93.4384 259.298 98.4534 259.298C103.468 259.298 106.893 260.212 109.721 261.433H147.826C150.649 260.212 154.079 259.298 159.094 259.298C164.109 259.298 167.533 260.212 170.361 261.433H177.873V252.675C176.396 252.018 175.078 251.279 173.78 250.55C169.997 248.421 166.421 246.415 159.099 246.415H159.083Z" fill="#231F20"/>
<path d="M159.083 231.915C151.761 231.915 148.185 233.926 144.402 236.05C140.57 238.205 136.603 240.432 128.765 240.432C120.928 240.432 116.961 238.205 113.129 236.05C109.346 233.921 105.77 231.915 98.4479 231.915C91.1264 231.915 87.5497 233.926 83.7668 236.05C79.935 238.205 75.9676 240.432 68.1304 240.432C60.2933 240.432 56.3258 238.205 52.4941 236.05C48.7112 233.921 45.1345 231.915 37.8129 231.915C30.4914 231.915 26.9147 233.926 23.1318 236.05C22.7899 236.24 22.4479 236.435 22.1006 236.625V249.221C22.1006 249.221 22.1494 249.19 22.1766 249.18C26.0083 247.025 29.9758 244.798 37.8129 244.798C45.6501 244.798 49.6175 247.025 53.4493 249.18C57.2322 251.309 60.8089 253.315 68.1304 253.315C75.452 253.315 79.0287 251.304 82.8116 249.18C86.6433 247.025 90.6108 244.798 98.4479 244.798C106.285 244.798 110.253 247.025 114.084 249.18C117.867 251.309 121.444 253.315 128.765 253.315C136.087 253.315 139.664 251.304 143.447 249.18C147.278 247.025 151.246 244.798 159.083 244.798C166.92 244.798 170.888 247.025 174.719 249.18C175.756 249.76 176.776 250.334 177.856 250.858V238.175C176.38 237.518 175.061 236.779 173.764 236.05C169.981 233.921 166.405 231.915 159.083 231.915Z" fill="#231F20"/>
<path d="M159.083 217.41C151.761 217.41 148.185 219.421 144.402 221.546C140.57 223.7 136.603 225.927 128.765 225.927C120.928 225.927 116.961 223.7 113.129 221.546C109.346 219.416 105.77 217.41 98.4479 217.41C91.1264 217.41 87.5497 219.421 83.7668 221.546C79.935 223.7 75.9676 225.927 68.1304 225.927C60.2933 225.927 56.3258 223.7 52.4941 221.546C48.7112 219.416 45.1345 217.41 37.8129 217.41C30.4914 217.41 26.9147 219.421 23.1318 221.546C22.7899 221.735 22.4479 221.93 22.1006 222.12V234.716C22.1006 234.716 22.1494 234.685 22.1766 234.675C26.0083 232.52 29.9758 230.293 37.8129 230.293C45.6501 230.293 49.6175 232.52 53.4493 234.675C57.2322 236.804 60.8089 238.811 68.1304 238.811C75.452 238.811 79.0287 236.799 82.8116 234.675C86.6433 232.52 90.6108 230.293 98.4479 230.293C106.285 230.293 110.253 232.52 114.084 234.675C117.867 236.804 121.444 238.811 128.765 238.811C136.087 238.811 139.664 236.799 143.447 234.675C147.278 232.52 151.246 230.293 159.083 230.293C166.92 230.293 170.888 232.52 174.719 234.675C175.756 235.255 176.776 235.83 177.856 236.353V223.67C176.38 223.013 175.061 222.274 173.764 221.546C169.981 219.416 166.405 217.41 159.083 217.41Z" fill="#231F20"/>
<path d="M159.083 202.911C151.761 202.911 148.185 204.922 144.402 207.047C140.57 209.201 136.603 211.428 128.765 211.428C120.928 211.428 116.961 209.201 113.129 207.047C109.346 204.917 105.77 202.911 98.4479 202.911C91.1264 202.911 87.5497 204.922 83.7668 207.047C79.935 209.201 75.9676 211.428 68.1304 211.428C60.2933 211.428 56.3258 209.201 52.4941 207.047C48.7112 204.917 45.1345 202.911 37.8129 202.911C30.4914 202.911 26.9147 204.922 23.1318 207.047C22.7899 207.236 22.4479 207.431 22.1006 207.621V220.217C22.1006 220.217 22.1494 220.186 22.1766 220.176C26.0083 218.021 29.9758 215.794 37.8129 215.794C45.6501 215.794 49.6175 218.021 53.4493 220.176C57.2322 222.305 60.8089 224.311 68.1304 224.311C75.452 224.311 79.0287 222.3 82.8116 220.176C86.6433 218.021 90.6108 215.794 98.4479 215.794C106.285 215.794 110.253 218.021 114.084 220.176C117.867 222.305 121.444 224.311 128.765 224.311C136.087 224.311 139.664 222.3 143.447 220.176C147.278 218.021 151.246 215.794 159.083 215.794C166.92 215.794 170.888 218.021 174.719 220.176C175.756 220.756 176.776 221.331 177.856 221.854V209.171C176.38 208.514 175.061 207.775 173.764 207.047C169.981 204.917 166.405 202.911 159.083 202.911Z" fill="#231F20"/>
<path d="M37.8076 130.398C45.1291 130.398 48.7058 132.409 52.4887 134.533C56.3204 136.688 60.2879 138.915 68.1251 138.915C75.9622 138.915 79.9297 136.688 83.7614 134.533C87.5443 132.404 91.121 130.398 98.4426 130.398C105.764 130.398 109.341 132.409 113.124 134.533C116.955 136.688 120.923 138.915 128.76 138.915C136.597 138.915 140.565 136.688 144.396 134.533C148.179 132.404 151.756 130.398 159.078 130.398C166.399 130.398 169.976 132.409 173.759 134.533C175.056 135.262 176.375 136 177.851 136.657V134.836C176.766 134.312 175.745 133.738 174.714 133.158C170.882 131.003 166.915 128.776 159.078 128.776C151.24 128.776 147.273 131.003 143.441 133.158C139.658 135.287 136.082 137.293 128.76 137.293C121.438 137.293 117.862 135.282 114.079 133.158C110.247 131.003 106.28 128.776 98.4426 128.776C90.6054 128.776 86.638 131.003 82.8062 133.158C79.0233 135.287 75.4466 137.293 68.1251 137.293C60.8035 137.293 57.2268 135.282 53.4439 133.158C49.6122 131.003 45.6447 128.776 37.8076 128.776C29.9704 128.776 26.0029 131.003 22.1712 133.158C22.1441 133.173 22.1224 133.189 22.0952 133.199V135.103C22.4426 134.913 22.7845 134.718 23.1264 134.528C26.9093 132.399 30.486 130.393 37.8076 130.393V130.398Z" fill="white"/>
<path d="M159.083 143.282C151.246 143.282 147.278 145.508 143.447 147.663C139.664 149.792 136.087 151.799 128.765 151.799C121.444 151.799 117.867 149.787 114.084 147.663C110.253 145.508 106.285 143.282 98.4479 143.282C90.6108 143.282 86.6433 145.508 82.8116 147.663C79.0287 149.792 75.452 151.799 68.1304 151.799C60.8089 151.799 57.2322 149.787 53.4493 147.663C49.6175 145.508 45.6501 143.282 37.8129 143.282C29.9758 143.282 26.0083 145.508 22.1766 147.663C22.1494 147.679 22.1277 147.694 22.1006 147.704V149.608C22.4479 149.418 22.7899 149.223 23.1318 149.033C26.9147 146.904 30.4914 144.898 37.8129 144.898C45.1345 144.898 48.7112 146.909 52.4941 149.033C56.3258 151.188 60.2933 153.415 68.1304 153.415C75.9676 153.415 79.935 151.188 83.7668 149.033C87.5497 146.904 91.1264 144.898 98.4479 144.898C105.77 144.898 109.346 146.909 113.129 149.033C116.961 151.188 120.928 153.415 128.765 153.415C136.603 153.415 140.57 151.188 144.402 149.033C148.185 146.904 151.761 144.898 159.083 144.898C166.405 144.898 169.981 146.909 173.764 149.033C175.061 149.762 176.38 150.5 177.856 151.157V149.336C176.771 148.812 175.751 148.238 174.719 147.658C170.888 145.503 166.92 143.276 159.083 143.276V143.282Z" fill="white"/>
<path d="M159.083 157.786C151.246 157.786 147.278 160.013 143.447 162.168C139.664 164.297 136.087 166.303 128.765 166.303C121.444 166.303 117.867 164.292 114.084 162.168C110.253 160.013 106.285 157.786 98.4479 157.786C90.6108 157.786 86.6433 160.013 82.8116 162.168C79.0287 164.297 75.452 166.303 68.1304 166.303C60.8089 166.303 57.2322 164.292 53.4493 162.168C49.6175 160.013 45.6501 157.786 37.8129 157.786C29.9758 157.786 26.0083 160.013 22.1766 162.168C22.1494 162.183 22.1277 162.199 22.1006 162.209V164.113C22.4479 163.923 22.7899 163.728 23.1318 163.538C26.9147 161.409 30.4914 159.403 37.8129 159.403C45.1345 159.403 48.7112 161.414 52.4941 163.538C56.3258 165.693 60.2933 167.92 68.1304 167.92C75.9676 167.92 79.935 165.693 83.7668 163.538C87.5497 161.409 91.1264 159.403 98.4479 159.403C105.77 159.403 109.346 161.414 113.129 163.538C116.961 165.693 120.928 167.92 128.765 167.92C136.603 167.92 140.57 165.693 144.402 163.538C148.185 161.409 151.761 159.403 159.083 159.403C166.405 159.403 169.981 161.414 173.764 163.538C175.061 164.267 176.38 165.005 177.856 165.662V163.841C176.771 163.317 175.751 162.743 174.719 162.163C170.888 160.008 166.92 157.781 159.083 157.781V157.786Z" fill="white"/>
<path d="M159.083 172.285C151.246 172.285 147.278 174.512 143.447 176.667C139.664 178.796 136.087 180.802 128.765 180.802C121.444 180.802 117.867 178.791 114.084 176.667C110.253 174.512 106.285 172.285 98.4479 172.285C90.6108 172.285 86.6433 174.512 82.8116 176.667C79.0287 178.796 75.452 180.802 68.1304 180.802C60.8089 180.802 57.2322 178.791 53.4493 176.667C49.6175 174.512 45.6501 172.285 37.8129 172.285C29.9758 172.285 26.0083 174.512 22.1766 176.667C22.1494 176.682 22.1277 176.698 22.1006 176.708V178.612C22.4479 178.422 22.7899 178.227 23.1318 178.037C26.9147 175.908 30.4914 173.902 37.8129 173.902C45.1345 173.902 48.7112 175.913 52.4941 178.037C56.3258 180.192 60.2933 182.419 68.1304 182.419C75.9676 182.419 79.935 180.192 83.7668 178.037C87.5497 175.908 91.1264 173.902 98.4479 173.902C105.77 173.902 109.346 175.913 113.129 178.037C116.961 180.192 120.928 182.419 128.765 182.419C136.603 182.419 140.57 180.192 144.402 178.037C148.185 175.908 151.761 173.902 159.083 173.902C166.405 173.902 169.981 175.913 173.764 178.037C175.061 178.766 176.38 179.504 177.856 180.161V178.34C176.771 177.816 175.751 177.242 174.719 176.662C170.888 174.507 166.92 172.28 159.083 172.28V172.285Z" fill="white"/>
<path d="M159.083 186.79C151.246 186.79 147.278 189.017 143.447 191.172C139.664 193.301 136.087 195.307 128.765 195.307C121.444 195.307 117.867 193.296 114.084 191.172C110.253 189.017 106.285 186.79 98.4479 186.79C90.6108 186.79 86.6433 189.017 82.8116 191.172C79.0287 193.301 75.452 195.307 68.1304 195.307C60.8089 195.307 57.2322 193.296 53.4493 191.172C49.6175 189.017 45.6501 186.79 37.8129 186.79C29.9758 186.79 26.0083 189.017 22.1766 191.172C22.1494 191.187 22.1277 191.203 22.1006 191.213V193.117C22.4479 192.927 22.7899 192.732 23.1318 192.542C26.9147 190.413 30.4914 188.406 37.8129 188.406C45.1345 188.406 48.7112 190.418 52.4941 192.542C56.3258 194.697 60.2933 196.924 68.1304 196.924C75.9676 196.924 79.935 194.697 83.7668 192.542C87.5497 190.413 91.1264 188.406 98.4479 188.406C105.77 188.406 109.346 190.418 113.129 192.542C116.961 194.697 120.928 196.924 128.765 196.924C136.603 196.924 140.57 194.697 144.402 192.542C148.185 190.413 151.761 188.406 159.083 188.406C166.405 188.406 169.981 190.418 173.764 192.542C175.061 193.27 176.38 194.009 177.856 194.666V192.845C176.771 192.321 175.751 191.747 174.719 191.167C170.888 189.012 166.92 186.785 159.083 186.785V186.79Z" fill="white"/>
<path d="M159.083 201.289C151.246 201.289 147.278 203.516 143.447 205.671C139.664 207.8 136.087 209.806 128.765 209.806C121.444 209.806 117.867 207.795 114.084 205.671C110.253 203.516 106.285 201.289 98.4479 201.289C90.6108 201.289 86.6433 203.516 82.8116 205.671C79.0287 207.8 75.452 209.806 68.1304 209.806C60.8089 209.806 57.2322 207.795 53.4493 205.671C49.6175 203.516 45.6501 201.289 37.8129 201.289C29.9758 201.289 26.0083 203.516 22.1766 205.671C22.1494 205.686 22.1277 205.702 22.1006 205.712V207.616C22.4479 207.426 22.7899 207.231 23.1318 207.041C26.9147 204.912 30.4914 202.905 37.8129 202.905C45.1345 202.905 48.7112 204.917 52.4941 207.041C56.3258 209.196 60.2933 211.423 68.1304 211.423C75.9676 211.423 79.935 209.196 83.7668 207.041C87.5497 204.912 91.1264 202.905 98.4479 202.905C105.77 202.905 109.346 204.917 113.129 207.041C116.961 209.196 120.928 211.423 128.765 211.423C136.603 211.423 140.57 209.196 144.402 207.041C148.185 204.912 151.761 202.905 159.083 202.905C166.405 202.905 169.981 204.917 173.764 207.041C175.061 207.769 176.38 208.508 177.856 209.165V207.344C176.771 206.82 175.751 206.246 174.719 205.666C170.888 203.511 166.92 201.284 159.083 201.284V201.289Z" fill="white"/>
<path d="M159.083 215.794C151.246 215.794 147.278 218.021 143.447 220.176C139.664 222.305 136.087 224.311 128.765 224.311C121.444 224.311 117.867 222.3 114.084 220.176C110.253 218.021 106.285 215.794 98.4479 215.794C90.6108 215.794 86.6433 218.021 82.8116 220.176C79.0287 222.305 75.452 224.311 68.1304 224.311C60.8089 224.311 57.2322 222.3 53.4493 220.176C49.6175 218.021 45.6501 215.794 37.8129 215.794C29.9758 215.794 26.0083 218.021 22.1766 220.176C22.1494 220.191 22.1277 220.207 22.1006 220.217V222.12C22.4479 221.931 22.7899 221.736 23.1318 221.546C26.9147 219.417 30.4914 217.41 37.8129 217.41C45.1345 217.41 48.7112 219.422 52.4941 221.546C56.3258 223.701 60.2933 225.927 68.1304 225.927C75.9676 225.927 79.935 223.701 83.7668 221.546C87.5497 219.417 91.1264 217.41 98.4479 217.41C105.77 217.41 109.346 219.422 113.129 221.546C116.961 223.701 120.928 225.927 128.765 225.927C136.603 225.927 140.57 223.701 144.402 221.546C148.185 219.417 151.761 217.41 159.083 217.41C166.405 217.41 169.981 219.422 173.764 221.546C175.061 222.274 176.38 223.013 177.856 223.67V221.848C176.771 221.325 175.751 220.75 174.719 220.171C170.888 218.016 166.92 215.789 159.083 215.789V215.794Z" fill="white"/>
<path d="M159.083 230.294C151.246 230.294 147.278 232.521 143.447 234.676C139.664 236.805 136.087 238.811 128.765 238.811C121.444 238.811 117.867 236.8 114.084 234.676C110.253 232.521 106.285 230.294 98.4479 230.294C90.6108 230.294 86.6433 232.521 82.8116 234.676C79.0287 236.805 75.452 238.811 68.1304 238.811C60.8089 238.811 57.2322 236.8 53.4493 234.676C49.6175 232.521 45.6501 230.294 37.8129 230.294C29.9758 230.294 26.0083 232.521 22.1766 234.676C22.1494 234.691 22.1277 234.707 22.1006 234.717V236.62C22.4479 236.431 22.7899 236.236 23.1318 236.046C26.9147 233.917 30.4914 231.91 37.8129 231.91C45.1345 231.91 48.7112 233.922 52.4941 236.046C56.3258 238.201 60.2933 240.427 68.1304 240.427C75.9676 240.427 79.935 238.201 83.7668 236.046C87.5497 233.917 91.1264 231.91 98.4479 231.91C105.77 231.91 109.346 233.922 113.129 236.046C116.961 238.201 120.928 240.427 128.765 240.427C136.603 240.427 140.57 238.201 144.402 236.046C148.185 233.917 151.761 231.91 159.083 231.91C166.405 231.91 169.981 233.922 173.764 236.046C175.061 236.774 176.38 237.513 177.856 238.17V236.348C176.771 235.825 175.751 235.25 174.719 234.671C170.888 232.516 166.92 230.289 159.083 230.289V230.294Z" fill="white"/>
<path d="M159.083 244.793C151.246 244.793 147.278 247.02 143.447 249.175C139.664 251.304 136.087 253.31 128.765 253.31C121.444 253.31 117.867 251.299 114.084 249.175C110.253 247.02 106.285 244.793 98.4479 244.793C90.6108 244.793 86.6433 247.02 82.8116 249.175C79.0287 251.304 75.452 253.31 68.1304 253.31C60.8089 253.31 57.2322 251.299 53.4493 249.175C49.6175 247.02 45.6501 244.793 37.8129 244.793C29.9758 244.793 26.0083 247.02 22.1766 249.175C22.1494 249.19 22.1277 249.206 22.1006 249.216V251.119C22.4479 250.93 22.7899 250.735 23.1318 250.545C26.9147 248.416 30.4914 246.409 37.8129 246.409C45.1345 246.409 48.7112 248.421 52.4941 250.545C56.3258 252.7 60.2933 254.926 68.1304 254.926C75.9676 254.926 79.935 252.7 83.7668 250.545C87.5497 248.416 91.1264 246.409 98.4479 246.409C105.77 246.409 109.346 248.421 113.129 250.545C116.961 252.7 120.928 254.926 128.765 254.926C136.603 254.926 140.57 252.7 144.402 250.545C148.185 248.416 151.761 246.409 159.083 246.409C166.405 246.409 169.981 248.421 173.764 250.545C175.061 251.273 176.38 252.012 177.856 252.669V250.847C176.771 250.324 175.751 249.75 174.719 249.17C170.888 247.015 166.92 244.788 159.083 244.788V244.793Z" fill="white"/>
<path d="M159.528 30.6201C152.207 30.6201 148.63 32.6314 144.847 34.7555C141.015 36.9104 137.048 39.1372 129.211 39.1372C121.374 39.1372 117.406 36.9104 113.574 34.7555C109.791 32.6262 106.215 30.6201 98.8933 30.6201C91.5717 30.6201 87.995 32.6314 84.2121 34.7555C80.3804 36.9104 76.4129 39.1372 68.5757 39.1372C60.7386 39.1372 56.7711 36.9104 52.9394 34.7555C49.1565 32.6262 45.5798 30.6201 38.2582 30.6201C30.9367 30.6201 27.36 32.6314 23.5771 34.7555C23.2352 34.9453 22.8933 35.1403 22.5459 35.3301V47.9261C22.5459 47.9261 22.5947 47.8953 22.6219 47.8851C26.4536 45.7302 30.4211 43.5034 38.2582 43.5034C46.0954 43.5034 50.0629 45.7302 53.8946 47.8851C57.6775 50.0143 61.2542 52.0205 68.5757 52.0205C75.8973 52.0205 79.474 50.0092 83.2569 47.8851C87.0886 45.7302 91.0561 43.5034 98.8933 43.5034C106.73 43.5034 110.698 45.7302 114.53 47.8851C118.313 50.0143 121.889 52.0205 129.211 52.0205C136.532 52.0205 140.109 50.0092 143.892 47.8851C147.724 45.7302 151.691 43.5034 159.528 43.5034C167.365 43.5034 171.333 45.7302 175.165 47.8851C176.201 48.4649 177.222 49.0395 178.302 49.5628V36.8796C176.825 36.2229 175.507 35.4841 174.209 34.7555C170.426 32.6262 166.85 30.6201 159.528 30.6201Z" fill="white"/>
<path d="M159.528 45.125C152.207 45.125 148.63 47.1363 144.847 49.2604C141.015 51.4153 137.048 53.642 129.211 53.642C121.374 53.642 117.406 51.4153 113.574 49.2604C109.791 47.1311 106.215 45.125 98.8933 45.125C91.5717 45.125 87.995 47.1363 84.2121 49.2604C80.3804 51.4153 76.4129 53.642 68.5757 53.642C60.7386 53.642 56.7711 51.4153 52.9394 49.2604C49.1565 47.1311 45.5798 45.125 38.2582 45.125C30.9367 45.125 27.36 47.1363 23.5771 49.2604C23.2352 49.4502 22.8933 49.6452 22.5459 49.835V62.431C22.5459 62.431 22.5947 62.4002 22.6219 62.39C26.4536 60.235 30.4211 58.0083 38.2582 58.0083C46.0954 58.0083 50.0629 60.235 53.8946 62.39C57.6775 64.5192 61.2542 66.5253 68.5757 66.5253C75.8973 66.5253 79.474 64.5141 83.2569 62.39C87.0886 60.235 91.0561 58.0083 98.8933 58.0083C106.73 58.0083 110.698 60.235 114.53 62.39C118.313 64.5192 121.889 66.5253 129.211 66.5253C136.532 66.5253 140.109 64.5141 143.892 62.39C147.724 60.235 151.691 58.0083 159.528 58.0083C167.365 58.0083 171.333 60.235 175.165 62.39C176.201 62.9697 177.222 63.5444 178.302 64.0677V51.3845C176.825 50.7278 175.507 49.9889 174.209 49.2604C170.426 47.1311 166.85 45.125 159.528 45.125Z" fill="white"/>
<path d="M159.528 59.625C152.207 59.625 148.63 61.6363 144.847 63.7604C141.015 65.9153 137.048 68.142 129.211 68.142C121.374 68.142 117.406 65.9153 113.574 63.7604C109.791 61.6311 106.215 59.625 98.8933 59.625C91.5717 59.625 87.995 61.6363 84.2121 63.7604C80.3804 65.9153 76.4129 68.142 68.5757 68.142C60.7386 68.142 56.7711 65.9153 52.9394 63.7604C49.1565 61.6311 45.5798 59.625 38.2582 59.625C30.9367 59.625 27.36 61.6363 23.5771 63.7604C23.2352 63.9502 22.8933 64.1452 22.5459 64.335V76.931C22.5459 76.931 22.5947 76.9002 22.6219 76.89C26.4536 74.735 30.4211 72.5083 38.2582 72.5083C46.0954 72.5083 50.0629 74.735 53.8946 76.89C57.6775 79.0192 61.2542 81.0253 68.5757 81.0253C75.8973 81.0253 79.474 79.0141 83.2569 76.89C87.0886 74.735 91.0561 72.5083 98.8933 72.5083C106.73 72.5083 110.698 74.735 114.53 76.89C118.313 79.0192 121.889 81.0253 129.211 81.0253C136.532 81.0253 140.109 79.0141 143.892 76.89C147.724 74.735 151.691 72.5083 159.528 72.5083C167.365 72.5083 171.333 74.735 175.165 76.89C176.201 77.4697 177.222 78.0444 178.302 78.5677V65.8845C176.825 65.2278 175.507 64.4889 174.209 63.7604C170.426 61.6311 166.85 59.625 159.528 59.625Z" fill="white"/>
<path d="M159.528 103.134C152.207 103.134 148.63 105.145 144.847 107.269C141.015 109.424 137.048 111.651 129.211 111.651C121.374 111.651 117.406 109.424 113.574 107.269C109.791 105.14 106.215 103.134 98.8933 103.134C91.5717 103.134 87.995 105.145 84.2121 107.269C80.3804 109.424 76.4129 111.651 68.5757 111.651C60.7386 111.651 56.7711 109.424 52.9394 107.269C49.1565 105.14 45.5798 103.134 38.2582 103.134C30.9367 103.134 27.36 105.145 23.5771 107.269C23.2352 107.459 22.8933 107.654 22.5459 107.844V120.44C22.5459 120.44 22.5947 120.409 22.6219 120.399C26.4536 118.244 30.4211 116.017 38.2582 116.017C46.0954 116.017 50.0629 118.244 53.8946 120.399C57.6775 122.528 61.2542 124.534 68.5757 124.534C75.8973 124.534 79.474 122.523 83.2569 120.399C87.0886 118.244 91.0561 116.017 98.8933 116.017C106.73 116.017 110.698 118.244 114.53 120.399C118.313 122.528 121.889 124.534 129.211 124.534C136.532 124.534 140.109 122.523 143.892 120.399C147.724 118.244 151.691 116.017 159.528 116.017C167.365 116.017 171.333 118.244 175.165 120.399C176.201 120.979 177.222 121.553 178.302 122.077V109.393C176.825 108.737 175.507 107.998 174.209 107.269C170.426 105.14 166.85 103.134 159.528 103.134Z" fill="white"/>
<path d="M159.528 88.6289C152.207 88.6289 148.63 90.6402 144.847 92.7643C141.015 94.9192 137.048 97.1459 129.211 97.1459C121.374 97.1459 117.406 94.9192 113.574 92.7643C109.791 90.635 106.215 88.6289 98.8933 88.6289C91.5717 88.6289 87.995 90.6402 84.2121 92.7643C80.3804 94.9192 76.4129 97.1459 68.5757 97.1459C60.7386 97.1459 56.7711 94.9192 52.9394 92.7643C49.1565 90.635 45.5798 88.6289 38.2582 88.6289C30.9367 88.6289 27.36 90.6402 23.5771 92.7643C23.2352 92.9541 22.8933 93.1491 22.5459 93.3389V105.935C22.5459 105.935 22.5947 105.904 22.6219 105.894C26.4536 103.739 30.4211 101.512 38.2582 101.512C46.0954 101.512 50.0629 103.739 53.8946 105.894C57.6775 108.023 61.2542 110.029 68.5757 110.029C75.8973 110.029 79.474 108.018 83.2569 105.894C87.0886 103.739 91.0561 101.512 98.8933 101.512C106.73 101.512 110.698 103.739 114.53 105.894C118.313 108.023 121.889 110.029 129.211 110.029C136.532 110.029 140.109 108.018 143.892 105.894C147.724 103.739 151.691 101.512 159.528 101.512C167.365 101.512 171.333 103.739 175.165 105.894C176.201 106.474 177.222 107.048 178.302 107.572V94.8884C176.825 94.2317 175.507 93.4929 174.209 92.7643C170.426 90.635 166.85 88.6289 159.528 88.6289Z" fill="white"/>
<path d="M159.528 74.1289C152.207 74.1289 148.63 76.1402 144.847 78.2643C141.015 80.4192 137.048 82.6459 129.211 82.6459C121.374 82.6459 117.406 80.4192 113.574 78.2643C109.791 76.135 106.215 74.1289 98.8933 74.1289C91.5717 74.1289 87.995 76.1402 84.2121 78.2643C80.3804 80.4192 76.4129 82.6459 68.5757 82.6459C60.7386 82.6459 56.7711 80.4192 52.9394 78.2643C49.1565 76.135 45.5798 74.1289 38.2582 74.1289C30.9367 74.1289 27.36 76.1402 23.5771 78.2643C23.2352 78.4541 22.8933 78.6491 22.5459 78.8389V91.4349C22.5459 91.4349 22.5947 91.4041 22.6219 91.3939C26.4536 89.239 30.4211 87.0122 38.2582 87.0122C46.0954 87.0122 50.0629 89.239 53.8946 91.3939C57.6775 93.5231 61.2542 95.5293 68.5757 95.5293C75.8973 95.5293 79.474 93.518 83.2569 91.3939C87.0886 89.239 91.0561 87.0122 98.8933 87.0122C106.73 87.0122 110.698 89.239 114.53 91.3939C118.313 93.5231 121.889 95.5293 129.211 95.5293C136.532 95.5293 140.109 93.518 143.892 91.3939C147.724 89.239 151.691 87.0122 159.528 87.0122C167.365 87.0122 171.333 89.239 175.165 91.3939C176.201 91.9736 177.222 92.5483 178.302 93.0716V80.3884C176.825 79.7317 175.507 78.9929 174.209 78.2643C170.426 76.135 166.85 74.1289 159.528 74.1289Z" fill="white"/>
<path d="M159.528 43.5042C151.691 43.5042 147.724 45.7309 143.892 47.8858C140.109 50.0151 136.532 52.0212 129.211 52.0212C121.889 52.0212 118.313 50.0099 114.53 47.8858C110.698 45.7309 106.73 43.5042 98.8933 43.5042C91.0561 43.5042 87.0886 45.7309 83.2569 47.8858C79.474 50.0151 75.8973 52.0212 68.5757 52.0212C61.2542 52.0212 57.6775 50.0099 53.8946 47.8858C50.0629 45.7309 46.0954 43.5042 38.2582 43.5042C30.4211 43.5042 26.4536 45.7309 22.6219 47.8858C22.5947 47.9012 22.573 47.9166 22.5459 47.9269V49.8304C22.8933 49.6405 23.2352 49.4456 23.5771 49.2557C27.36 47.1265 30.9367 45.1203 38.2582 45.1203C45.5798 45.1203 49.1565 47.1316 52.9394 49.2557C56.7711 51.4106 60.7386 53.6374 68.5757 53.6374C76.4129 53.6374 80.3804 51.4106 84.2121 49.2557C87.995 47.1265 91.5717 45.1203 98.8933 45.1203C106.215 45.1203 109.791 47.1316 113.574 49.2557C117.406 51.4106 121.374 53.6374 129.211 53.6374C137.048 53.6374 141.015 51.4106 144.847 49.2557C148.63 47.1265 152.207 45.1203 159.528 45.1203C166.85 45.1203 170.426 47.1316 174.209 49.2557C175.507 49.9843 176.825 50.7231 178.302 51.3798V49.5584C177.216 49.0351 176.196 48.4605 175.165 47.8807C171.333 45.7258 167.365 43.499 159.528 43.499V43.5042Z" fill="#231F20"/>
<path d="M159.528 58.0081C151.691 58.0081 147.724 60.2348 143.892 62.3897C140.109 64.519 136.532 66.5251 129.211 66.5251C121.889 66.5251 118.313 64.5138 114.53 62.3897C110.698 60.2348 106.73 58.0081 98.8933 58.0081C91.0561 58.0081 87.0886 60.2348 83.2569 62.3897C79.474 64.519 75.8973 66.5251 68.5757 66.5251C61.2542 66.5251 57.6775 64.5138 53.8946 62.3897C50.0629 60.2348 46.0954 58.0081 38.2582 58.0081C30.4211 58.0081 26.4536 60.2348 22.6219 62.3897C22.5947 62.4051 22.573 62.4205 22.5459 62.4308V64.3343C22.8933 64.1444 23.2352 63.9495 23.5771 63.7596C27.36 61.6304 30.9367 59.6242 38.2582 59.6242C45.5798 59.6242 49.1565 61.6355 52.9394 63.7596C56.7711 65.9145 60.7386 68.1413 68.5757 68.1413C76.4129 68.1413 80.3804 65.9145 84.2121 63.7596C87.995 61.6304 91.5717 59.6242 98.8933 59.6242C106.215 59.6242 109.791 61.6355 113.574 63.7596C117.406 65.9145 121.374 68.1413 129.211 68.1413C137.048 68.1413 141.015 65.9145 144.847 63.7596C148.63 61.6304 152.207 59.6242 159.528 59.6242C166.85 59.6242 170.426 61.6355 174.209 63.7596C175.507 64.4882 176.825 65.227 178.302 65.8838V64.0623C177.216 63.539 176.196 62.9644 175.165 62.3846C171.333 60.2297 167.365 58.0029 159.528 58.0029V58.0081Z" fill="#231F20"/>
<path d="M159.528 72.5081C151.691 72.5081 147.724 74.7348 143.892 76.8897C140.109 79.019 136.532 81.0251 129.211 81.0251C121.889 81.0251 118.313 79.0138 114.53 76.8897C110.698 74.7348 106.73 72.5081 98.8933 72.5081C91.0561 72.5081 87.0886 74.7348 83.2569 76.8897C79.474 79.019 75.8973 81.0251 68.5757 81.0251C61.2542 81.0251 57.6775 79.0138 53.8946 76.8897C50.0629 74.7348 46.0954 72.5081 38.2582 72.5081C30.4211 72.5081 26.4536 74.7348 22.6219 76.8897C22.5947 76.9051 22.573 76.9205 22.5459 76.9308V78.8343C22.8933 78.6444 23.2352 78.4495 23.5771 78.2596C27.36 76.1304 30.9367 74.1242 38.2582 74.1242C45.5798 74.1242 49.1565 76.1355 52.9394 78.2596C56.7711 80.4145 60.7386 82.6413 68.5757 82.6413C76.4129 82.6413 80.3804 80.4145 84.2121 78.2596C87.995 76.1304 91.5717 74.1242 98.8933 74.1242C106.215 74.1242 109.791 76.1355 113.574 78.2596C117.406 80.4145 121.374 82.6413 129.211 82.6413C137.048 82.6413 141.015 80.4145 144.847 78.2596C148.63 76.1304 152.207 74.1242 159.528 74.1242C166.85 74.1242 170.426 76.1355 174.209 78.2596C175.507 78.9882 176.825 79.727 178.302 80.3838V78.5623C177.216 78.039 176.196 77.4644 175.165 76.8846C171.333 74.7297 167.365 72.5029 159.528 72.5029V72.5081Z" fill="#231F20"/>
<path d="M159.528 87.0129C151.691 87.0129 147.724 89.2397 143.892 91.3946C140.109 93.5239 136.532 95.53 129.211 95.53C121.889 95.53 118.313 93.5187 114.53 91.3946C110.698 89.2397 106.73 87.0129 98.8933 87.0129C91.0561 87.0129 87.0886 89.2397 83.2569 91.3946C79.474 93.5239 75.8973 95.53 68.5757 95.53C61.2542 95.53 57.6775 93.5187 53.8946 91.3946C50.0629 89.2397 46.0954 87.0129 38.2582 87.0129C30.4211 87.0129 26.4536 89.2397 22.6219 91.3946C22.5947 91.41 22.573 91.4254 22.5459 91.4356V93.3392C22.8933 93.1493 23.2352 92.9543 23.5771 92.7645C27.36 90.6353 30.9367 88.6291 38.2582 88.6291C45.5798 88.6291 49.1565 90.6404 52.9394 92.7645C56.7711 94.9194 60.7386 97.1462 68.5757 97.1462C76.4129 97.1462 80.3804 94.9194 84.2121 92.7645C87.995 90.6353 91.5717 88.6291 98.8933 88.6291C106.215 88.6291 109.791 90.6404 113.574 92.7645C117.406 94.9194 121.374 97.1462 129.211 97.1462C137.048 97.1462 141.015 94.9194 144.847 92.7645C148.63 90.6353 152.207 88.6291 159.528 88.6291C166.85 88.6291 170.426 90.6404 174.209 92.7645C175.507 93.4931 176.825 94.2319 178.302 94.8886V93.0672C177.216 92.5439 176.196 91.9692 175.165 91.3895C171.333 89.2346 167.365 87.0078 159.528 87.0078V87.0129Z" fill="#231F20"/>
<path d="M159.528 101.512C151.691 101.512 147.724 103.739 143.892 105.894C140.109 108.023 136.532 110.029 129.211 110.029C121.889 110.029 118.313 108.018 114.53 105.894C110.698 103.739 106.73 101.512 98.8933 101.512C91.0561 101.512 87.0886 103.739 83.2569 105.894C79.474 108.023 75.8973 110.029 68.5757 110.029C61.2542 110.029 57.6775 108.018 53.8946 105.894C50.0629 103.739 46.0954 101.512 38.2582 101.512C30.4211 101.512 26.4536 103.739 22.6219 105.894C22.5947 105.909 22.573 105.924 22.5459 105.935V107.838C22.8933 107.648 23.2352 107.453 23.5771 107.264C27.36 105.134 30.9367 103.128 38.2582 103.128C45.5798 103.128 49.1565 105.139 52.9394 107.264C56.7711 109.418 60.7386 111.645 68.5757 111.645C76.4129 111.645 80.3804 109.418 84.2121 107.264C87.995 105.134 91.5717 103.128 98.8933 103.128C106.215 103.128 109.791 105.139 113.574 107.264C117.406 109.418 121.374 111.645 129.211 111.645C137.048 111.645 141.015 109.418 144.847 107.264C148.63 105.134 152.207 103.128 159.528 103.128C166.85 103.128 170.426 105.139 174.209 107.264C175.507 107.992 176.825 108.731 178.302 109.388V107.566C177.216 107.043 176.196 106.468 175.165 105.888C171.333 103.734 167.365 101.507 159.528 101.507V101.512Z" fill="#231F20"/>
<path d="M159.528 116.012C151.691 116.012 147.724 118.239 143.892 120.394C140.109 122.523 136.532 124.529 129.211 124.529C121.889 124.529 118.313 122.518 114.53 120.394C110.698 118.239 106.73 116.012 98.8933 116.012C91.0561 116.012 87.0886 118.239 83.2569 120.394C79.474 122.523 75.8973 124.529 68.5757 124.529C61.2542 124.529 57.6775 122.518 53.8946 120.394C50.0629 118.239 46.0954 116.012 38.2582 116.012C30.4211 116.012 26.4536 118.239 22.6219 120.394C22.5947 120.409 22.573 120.424 22.5459 120.435V122.338C22.8933 122.148 23.2352 121.953 23.5771 121.764C27.36 119.634 30.9367 117.628 38.2582 117.628C45.5798 117.628 49.1565 119.639 52.9394 121.764C56.7711 123.918 60.7386 126.145 68.5757 126.145C76.4129 126.145 80.3804 123.918 84.2121 121.764C87.995 119.634 91.5717 117.628 98.8933 117.628C106.215 117.628 109.791 119.639 113.574 121.764C117.406 123.918 121.374 126.145 129.211 126.145C137.048 126.145 141.015 123.918 144.847 121.764C148.63 119.634 152.207 117.628 159.528 117.628C166.85 117.628 170.426 119.639 174.209 121.764C175.507 122.492 176.825 123.231 178.302 123.888V122.066C177.216 121.543 176.196 120.968 175.165 120.388C171.333 118.234 167.365 116.007 159.528 116.007V116.012Z" fill="#231F20"/>
<path d="M99.9785 201.402C122.443 201.402 140.684 218.647 140.684 239.883V278.364H59.2729V239.883C59.2729 218.647 77.5145 201.402 99.9785 201.402Z" fill="#231F20" stroke="white" stroke-width="3" stroke-miterlimit="10"/>
<path d="M99.9784 209.868C117.503 209.868 131.729 223.316 131.729 239.883V278.107H68.228V239.883C68.228 223.316 82.4533 209.868 99.9784 209.868Z" fill="#231F20" stroke="white" stroke-width="3" stroke-miterlimit="10"/>
<path d="M99.9784 219.36C112.695 219.36 123.023 229.124 123.023 241.145V279.134H76.9336V241.145C76.9336 229.124 87.262 219.36 99.9784 219.36Z" fill="#231F20" stroke="white" stroke-width="3" stroke-miterlimit="10"/>
<path d="M99.9786 228.446C108.814 228.446 115.989 235.229 115.989 243.582V279.133H83.9678V243.582C83.9678 235.229 91.1428 228.446 99.9786 228.446Z" fill="#231F20" stroke="white" stroke-width="3" stroke-miterlimit="10"/>
<path d="M99.9786 238.087C104.321 238.087 107.848 241.422 107.848 245.526V280.159H92.1089V245.526C92.1089 241.422 95.6367 238.087 99.9786 238.087Z" fill="#231F20" stroke="white" stroke-width="3" stroke-miterlimit="10"/>
</g>
</g>
</g>
<defs>
<clipPath id="clip0_537_3215">
<rect width="200" height="290" rx="8" fill="white"/>
</clipPath>
</defs>
</svg>
