<svg width="200" height="290" viewBox="0 0 200 290" fill="none" xmlns="http://www.w3.org/2000/svg">
<g clip-path="url(#clip0_537_2993)">
<rect width="200" height="290" fill="#F2A543"/>
<mask id="mask0_537_2993" style="mask-type:luminance" maskUnits="userSpaceOnUse" x="24" y="35" width="142" height="220">
<path d="M94.7626 254.737C133.844 254.737 165.525 205.606 165.525 145C165.525 84.3945 133.844 35.2637 94.7626 35.2637C55.6815 35.2637 24 84.3945 24 145C24 205.606 55.6815 254.737 94.7626 254.737Z" fill="white"/>
</mask>
<g mask="url(#mask0_537_2993)">
<mask id="mask1_537_2993" style="mask-type:luminance" maskUnits="userSpaceOnUse" x="17" y="30" width="155" height="230">
<path d="M171.832 30.5791H17.6934V259.422H171.832V30.5791Z" fill="white"/>
</mask>
<g mask="url(#mask1_537_2993)">
<path d="M171.832 30.5791H17.6934V259.96H171.832V30.5791Z" fill="#231F20"/>
<path d="M171.832 84.4238H17.6934V260.498H171.832V84.4238Z" fill="#2B426E"/>
<path d="M185.943 98.3544C178.974 98.3544 175.224 96.0229 172.206 94.1545C169.552 92.5068 167.636 91.3222 163.267 91.3222C158.898 91.3222 156.977 92.5122 154.328 94.1545C151.316 96.0229 147.561 98.3544 140.592 98.3544C133.623 98.3544 129.873 96.0229 126.855 94.1545C124.201 92.5068 122.285 91.3222 117.916 91.3222C113.547 91.3222 111.626 92.5122 108.977 94.1545C105.965 96.0229 102.209 98.3544 95.2403 98.3544C88.2715 98.3544 84.5211 96.0229 81.5089 94.1545C78.8549 92.5068 76.9391 91.3222 72.57 91.3222C68.2009 91.3222 66.2851 92.5122 63.6311 94.1545C60.6134 96.0229 56.8631 98.3544 49.8997 98.3544C42.9363 98.3544 39.1806 96.0229 36.1684 94.1545C33.5144 92.5068 31.5985 91.3222 27.2294 91.3222C22.8604 91.3222 20.9391 92.5122 18.2905 94.1545C15.2783 96.0229 11.5225 98.3544 4.55914 98.3544C-2.40422 98.3544 -6.15999 96.0229 -9.17762 94.1545C-11.8316 92.5068 -13.7475 91.3222 -18.1166 91.3222C-20.2387 91.3222 -21.9646 89.6153 -21.9646 87.5046V86.1692C-21.9646 84.0638 -20.2441 82.3516 -18.1166 82.3516C-11.1532 82.3516 -7.39744 84.6831 -4.38523 86.5515C-1.73122 88.1992 0.184654 89.3838 4.55372 89.3838C8.92278 89.3838 10.8387 88.1938 13.4927 86.5515C16.5103 84.6777 20.2606 82.3516 27.2294 82.3516C34.1982 82.3516 37.9486 84.6831 40.9662 86.5515C43.6202 88.1992 45.5361 89.3838 49.9051 89.3838C54.2742 89.3838 56.1901 88.1938 58.8441 86.5515C61.8617 84.6777 65.6121 82.3516 72.5754 82.3516C79.5388 82.3516 83.2945 84.6831 86.3068 86.5515C88.9608 88.1992 90.8766 89.3838 95.2457 89.3838C99.6148 89.3838 101.536 88.1938 104.185 86.5515C107.202 84.6777 110.953 82.3516 117.921 82.3516C124.89 82.3516 128.641 84.6831 131.658 86.5515C134.312 88.1992 136.228 89.3838 140.597 89.3838C144.966 89.3838 146.888 88.1938 149.536 86.5515C152.554 84.6831 156.304 82.3516 163.273 82.3516C170.242 82.3516 173.992 84.6831 177.01 86.5515C179.664 88.1992 181.579 89.3838 185.949 89.3838C188.071 89.3838 189.797 91.0907 189.797 93.2014V94.5368C189.797 96.6421 188.076 98.3544 185.949 98.3544H185.943Z" fill="#EEAE6B"/>
<path d="M40.9552 86.5513C43.6092 88.199 45.5251 89.3836 49.8942 89.3836C54.2632 89.3836 56.1791 88.1936 58.8331 86.5513C61.8508 84.6775 65.6011 82.3514 72.5645 82.3514C79.5278 82.3514 83.2836 84.6829 86.2958 86.5513C88.9498 88.199 90.8657 89.3836 95.2347 89.3836C99.6038 89.3836 101.525 88.1936 104.174 86.5513C107.191 84.6775 110.942 82.3514 117.91 82.3514C124.879 82.3514 128.63 84.6829 131.647 86.5513C134.301 88.199 136.217 89.3836 140.586 89.3836C144.955 89.3836 146.877 88.1936 149.525 86.5513C152.543 84.6829 156.293 82.3514 163.262 82.3514C166.86 82.3514 169.601 82.976 171.826 83.8375V30.5791H17.6934V84.2359C20.0814 83.1752 23.0828 82.3514 27.2185 82.3514C34.1818 82.3514 37.9376 84.6829 40.9552 86.5513Z" fill="#E5C89E"/>
<path d="M185.943 121.508C178.974 121.508 175.224 119.176 172.206 117.308C169.552 115.66 167.636 114.476 163.267 114.476C158.898 114.476 156.977 115.665 154.328 117.308C151.316 119.176 147.561 121.508 140.592 121.508C133.623 121.508 129.873 119.176 126.855 117.308C124.201 115.66 122.285 114.476 117.916 114.476C113.547 114.476 111.626 115.665 108.977 117.308C105.965 119.176 102.209 121.508 95.2403 121.508C88.2715 121.508 84.5211 119.176 81.5089 117.308C78.8549 115.66 76.9391 114.476 72.57 114.476C68.2009 114.476 66.2851 115.665 63.6311 117.308C60.6134 119.176 56.8631 121.508 49.8997 121.508C42.9363 121.508 39.1806 119.176 36.1684 117.308C33.5144 115.66 31.5985 114.476 27.2294 114.476C22.8604 114.476 20.9391 115.665 18.2905 117.308C15.2783 119.176 11.5225 121.508 4.55914 121.508C-2.40422 121.508 -6.15999 119.176 -9.17762 117.308C-11.8316 115.66 -13.7475 114.476 -18.1166 114.476C-20.2387 114.476 -21.9646 112.769 -21.9646 110.658V109.323C-21.9646 107.217 -20.2441 105.505 -18.1166 105.505C-11.1532 105.505 -7.39744 107.836 -4.38523 109.705C-1.73122 111.352 0.184654 112.537 4.55372 112.537C8.92278 112.537 10.8387 111.347 13.4927 109.705C16.5103 107.831 20.2606 105.505 27.2294 105.505C34.1982 105.505 37.9486 107.836 40.9662 109.705C43.6202 111.352 45.5361 112.537 49.9051 112.537C54.2742 112.537 56.1901 111.347 58.8441 109.705C61.8617 107.831 65.6121 105.505 72.5754 105.505C79.5388 105.505 83.2945 107.836 86.3068 109.705C88.9608 111.352 90.8766 112.537 95.2457 112.537C99.6148 112.537 101.536 111.347 104.185 109.705C107.202 107.831 110.953 105.505 117.921 105.505C124.89 105.505 128.641 107.836 131.658 109.705C134.312 111.352 136.228 112.537 140.597 112.537C144.966 112.537 146.888 111.347 149.536 109.705C152.554 107.836 156.304 105.505 163.273 105.505C170.242 105.505 173.992 107.836 177.01 109.705C179.664 111.352 181.579 112.537 185.949 112.537C188.071 112.537 189.797 114.244 189.797 116.355V117.69C189.797 119.795 188.076 121.508 185.949 121.508H185.943Z" fill="#2B75A2"/>
<path d="M185.943 144.661C178.974 144.661 175.224 142.33 172.206 140.461C169.552 138.813 167.636 137.629 163.267 137.629C158.898 137.629 156.977 138.819 154.328 140.461C151.316 142.33 147.561 144.661 140.592 144.661C133.623 144.661 129.873 142.33 126.855 140.461C124.201 138.813 122.285 137.629 117.916 137.629C113.547 137.629 111.626 138.819 108.977 140.461C105.965 142.33 102.209 144.661 95.2403 144.661C88.2715 144.661 84.5211 142.33 81.5089 140.461C78.8549 138.813 76.9391 137.629 72.57 137.629C68.2009 137.629 66.2851 138.819 63.6311 140.461C60.6134 142.33 56.8631 144.661 49.8997 144.661C42.9363 144.661 39.1806 142.33 36.1684 140.461C33.5144 138.813 31.5985 137.629 27.2294 137.629C22.8604 137.629 20.9391 138.819 18.2905 140.461C15.2783 142.33 11.5225 144.661 4.55914 144.661C-2.40422 144.661 -6.15999 142.33 -9.17762 140.461C-11.8316 138.813 -13.7475 137.629 -18.1166 137.629C-20.2387 137.629 -21.9646 135.922 -21.9646 133.811V132.476C-21.9646 130.37 -20.2441 128.658 -18.1166 128.658C-11.1532 128.658 -7.39744 130.99 -4.38523 132.858C-1.73122 134.506 0.184654 135.69 4.55372 135.69C8.92278 135.69 10.8387 134.5 13.4927 132.858C16.5103 130.984 20.2606 128.658 27.2294 128.658C34.1982 128.658 37.9486 130.99 40.9662 132.858C43.6202 134.506 45.5361 135.69 49.9051 135.69C54.2742 135.69 56.1901 134.5 58.8441 132.858C61.8617 130.984 65.6121 128.658 72.5754 128.658C79.5388 128.658 83.2945 130.99 86.3068 132.858C88.9608 134.506 90.8766 135.69 95.2457 135.69C99.6148 135.69 101.536 134.5 104.185 132.858C107.202 130.984 110.953 128.658 117.921 128.658C124.89 128.658 128.641 130.99 131.658 132.858C134.312 134.506 136.228 135.69 140.597 135.69C144.966 135.69 146.888 134.5 149.536 132.858C152.554 130.99 156.304 128.658 163.273 128.658C170.242 128.658 173.992 130.99 177.01 132.858C179.664 134.506 181.579 135.69 185.949 135.69C188.071 135.69 189.797 137.397 189.797 139.508V140.843C189.797 142.949 188.076 144.661 185.949 144.661H185.943Z" fill="#2B75A2"/>
<path d="M185.943 167.815C178.974 167.815 175.224 165.484 172.206 163.615C169.552 161.968 167.636 160.783 163.267 160.783C158.898 160.783 156.977 161.973 154.328 163.615C151.316 165.484 147.561 167.815 140.592 167.815C133.623 167.815 129.873 165.484 126.855 163.615C124.201 161.968 122.285 160.783 117.916 160.783C113.547 160.783 111.626 161.973 108.977 163.615C105.965 165.484 102.209 167.815 95.2403 167.815C88.2715 167.815 84.5211 165.484 81.5089 163.615C78.8549 161.968 76.9391 160.783 72.57 160.783C68.2009 160.783 66.2851 161.973 63.6311 163.615C60.6134 165.484 56.8631 167.815 49.8997 167.815C42.9363 167.815 39.1806 165.484 36.1684 163.615C33.5144 161.968 31.5985 160.783 27.2294 160.783C22.8604 160.783 20.9391 161.973 18.2905 163.615C15.2783 165.484 11.5225 167.815 4.55914 167.815C-2.40422 167.815 -6.15999 165.484 -9.17762 163.615C-11.8316 161.968 -13.7475 160.783 -18.1166 160.783C-20.2387 160.783 -21.9646 159.076 -21.9646 156.965V155.63C-21.9646 153.525 -20.2441 151.812 -18.1166 151.812C-11.1532 151.812 -7.39744 154.144 -4.38523 156.012C-1.73122 157.66 0.184654 158.845 4.55372 158.845C8.92278 158.845 10.8387 157.655 13.4927 156.012C16.5103 154.139 20.2606 151.812 27.2294 151.812C34.1982 151.812 37.9486 154.144 40.9662 156.012C43.6202 157.66 45.5361 158.845 49.9051 158.845C54.2742 158.845 56.1901 157.655 58.8441 156.012C61.8617 154.139 65.6121 151.812 72.5754 151.812C79.5388 151.812 83.2945 154.144 86.3068 156.012C88.9608 157.66 90.8766 158.845 95.2457 158.845C99.6148 158.845 101.536 157.655 104.185 156.012C107.202 154.139 110.953 151.812 117.921 151.812C124.89 151.812 128.641 154.144 131.658 156.012C134.312 157.66 136.228 158.845 140.597 158.845C144.966 158.845 146.888 157.655 149.536 156.012C152.554 154.144 156.304 151.812 163.273 151.812C170.242 151.812 173.992 154.144 177.01 156.012C179.664 157.66 181.579 158.845 185.949 158.845C188.071 158.845 189.797 160.552 189.797 162.662V163.998C189.797 166.103 188.076 167.815 185.949 167.815H185.943Z" fill="#2B75A2"/>
<path d="M185.943 190.968C178.974 190.968 175.224 188.636 172.206 186.768C169.552 185.12 167.636 183.935 163.267 183.935C158.898 183.935 156.977 185.125 154.328 186.768C151.316 188.636 147.561 190.968 140.592 190.968C133.623 190.968 129.873 188.636 126.855 186.768C124.201 185.12 122.285 183.935 117.916 183.935C113.547 183.935 111.626 185.125 108.977 186.768C105.965 188.636 102.209 190.968 95.2403 190.968C88.2715 190.968 84.5211 188.636 81.5089 186.768C78.8549 185.12 76.9391 183.935 72.57 183.935C68.2009 183.935 66.2851 185.125 63.6311 186.768C60.6134 188.636 56.8631 190.968 49.8997 190.968C42.9363 190.968 39.1806 188.636 36.1684 186.768C33.5144 185.12 31.5985 183.935 27.2294 183.935C22.8604 183.935 20.9391 185.125 18.2905 186.768C15.2783 188.636 11.5225 190.968 4.55914 190.968C-2.40422 190.968 -6.15999 188.636 -9.17762 186.768C-11.8316 185.12 -13.7475 183.935 -18.1166 183.935C-20.2387 183.935 -21.9646 182.229 -21.9646 180.118V178.782C-21.9646 176.677 -20.2441 174.965 -18.1166 174.965C-11.1532 174.965 -7.39744 177.296 -4.38523 179.165C-1.73122 180.812 0.184654 181.997 4.55372 181.997C8.92278 181.997 10.8387 180.807 13.4927 179.165C16.5103 177.291 20.2606 174.965 27.2294 174.965C34.1982 174.965 37.9486 177.296 40.9662 179.165C43.6202 180.812 45.5361 181.997 49.9051 181.997C54.2742 181.997 56.1901 180.807 58.8441 179.165C61.8617 177.291 65.6121 174.965 72.5754 174.965C79.5388 174.965 83.2945 177.296 86.3068 179.165C88.9608 180.812 90.8766 181.997 95.2457 181.997C99.6148 181.997 101.536 180.807 104.185 179.165C107.202 177.291 110.953 174.965 117.921 174.965C124.89 174.965 128.641 177.296 131.658 179.165C134.312 180.812 136.228 181.997 140.597 181.997C144.966 181.997 146.888 180.807 149.536 179.165C152.554 177.296 156.304 174.965 163.273 174.965C170.242 174.965 173.992 177.296 177.01 179.165C179.664 180.812 181.579 181.997 185.949 181.997C188.071 181.997 189.797 183.704 189.797 185.815V187.15C189.797 189.255 188.076 190.968 185.949 190.968H185.943Z" fill="#2B75A2"/>
<path d="M185.943 214.122C178.974 214.122 175.224 211.79 172.206 209.922C169.552 208.274 167.636 207.09 163.267 207.09C158.898 207.09 156.977 208.28 154.328 209.922C151.316 211.79 147.561 214.122 140.592 214.122C133.623 214.122 129.873 211.79 126.855 209.922C124.201 208.274 122.285 207.09 117.916 207.09C113.547 207.09 111.626 208.28 108.977 209.922C105.965 211.79 102.209 214.122 95.2403 214.122C88.2715 214.122 84.5211 211.79 81.5089 209.922C78.8549 208.274 76.9391 207.09 72.57 207.09C68.2009 207.09 66.2851 208.28 63.6311 209.922C60.6134 211.79 56.8631 214.122 49.8997 214.122C42.9363 214.122 39.1806 211.79 36.1684 209.922C33.5144 208.274 31.5985 207.09 27.2294 207.09C22.8604 207.09 20.9391 208.28 18.2905 209.922C15.2783 211.79 11.5225 214.122 4.55914 214.122C-2.40422 214.122 -6.15999 211.79 -9.17762 209.922C-11.8316 208.274 -13.7475 207.09 -18.1166 207.09C-20.2387 207.09 -21.9646 205.383 -21.9646 203.272V201.937C-21.9646 199.831 -20.2441 198.119 -18.1166 198.119C-11.1532 198.119 -7.39744 200.451 -4.38523 202.319C-1.73122 203.967 0.184654 205.151 4.55372 205.151C8.92278 205.151 10.8387 203.961 13.4927 202.319C16.5103 200.445 20.2606 198.119 27.2294 198.119C34.1982 198.119 37.9486 200.451 40.9662 202.319C43.6202 203.967 45.5361 205.151 49.9051 205.151C54.2742 205.151 56.1901 203.961 58.8441 202.319C61.8617 200.445 65.6121 198.119 72.5754 198.119C79.5388 198.119 83.2945 200.451 86.3068 202.319C88.9608 203.967 90.8766 205.151 95.2457 205.151C99.6148 205.151 101.536 203.961 104.185 202.319C107.202 200.445 110.953 198.119 117.921 198.119C124.89 198.119 128.641 200.451 131.658 202.319C134.312 203.967 136.228 205.151 140.597 205.151C144.966 205.151 146.888 203.961 149.536 202.319C152.554 200.451 156.304 198.119 163.273 198.119C170.242 198.119 173.992 200.451 177.01 202.319C179.664 203.967 181.579 205.151 185.949 205.151C188.071 205.151 189.797 206.858 189.797 208.969V210.304C189.797 212.41 188.076 214.122 185.949 214.122H185.943Z" fill="#2B75A2"/>
<path d="M43.7448 70.0205L-43.0938 219.242H130.583L43.7448 70.0205Z" fill="#2B5A34"/>
<path d="M63.8263 149.76L23.3921 219.242H104.26L63.8263 149.76Z" fill="#EEAE6B"/>
<path d="M63.8259 185.201L44.0159 219.242H83.636L63.8259 185.201Z" fill="#2B5A34"/>
<path d="M171.832 218.499H17.6934V259.421H171.832V218.499Z" fill="#C1352E"/>
<path d="M171.637 236.435C170.415 236.025 169.493 235.008 168.272 233.57C167.409 232.552 166.513 231.502 165.314 230.652C164.375 229.989 163.333 229.526 162.209 229.268C161.509 229.106 160.771 229.025 160.006 229.025C159.24 229.025 158.502 229.106 157.802 229.268C156.679 229.526 155.637 229.989 154.698 230.652C153.498 231.502 152.603 232.552 151.74 233.57C150.128 235.471 149.042 236.634 147.094 236.634C145.145 236.634 144.06 235.471 142.448 233.57C141.585 232.552 140.69 231.502 139.49 230.652C138.551 229.989 137.509 229.526 136.386 229.268C135.685 229.106 134.947 229.025 134.182 229.025C133.417 229.025 132.679 229.106 131.979 229.268C130.855 229.526 129.813 229.989 128.874 230.652C127.675 231.502 126.779 232.552 125.916 233.57C124.304 235.471 123.219 236.634 121.27 236.634C119.322 236.634 118.236 235.471 116.624 233.57C115.761 232.552 114.866 231.502 113.666 230.652C112.728 229.989 111.685 229.526 110.562 229.268C109.862 229.106 109.124 229.025 108.358 229.025C107.593 229.025 106.855 229.106 106.155 229.268C105.031 229.526 103.989 229.989 103.05 230.652C101.851 231.502 100.955 232.552 100.093 233.57C98.5077 235.438 97.775 236.241 95.121 236.526C94.6434 236.58 94.2038 236.402 93.7967 236.278C93.7859 236.273 93.7696 236.268 93.7588 236.262C92.4399 235.858 91.4467 235.051 90.3666 234.157C88.5267 232.644 86.4426 230.932 82.6217 231.195C78.8008 231.459 76.9772 233.446 75.3653 235.196C73.9053 236.785 72.6407 238.158 69.8673 238.351C67.0939 238.545 65.6502 237.361 63.9786 235.988C62.1387 234.475 60.0545 232.762 56.2337 233.026C52.4128 233.29 50.5891 235.277 48.9772 237.027C47.5172 238.615 46.2526 239.988 43.4792 240.182C40.7058 240.376 39.2621 239.191 37.5905 237.818C35.7506 236.305 33.6665 234.593 29.8456 234.857C26.0247 235.121 24.2011 237.108 22.5891 238.858C21.3408 240.214 20.2391 241.415 18.2147 241.857C18.0301 241.9 17.8619 241.981 17.7153 242.083V259.416H171.854V236.51C171.789 236.483 171.723 236.456 171.658 236.429L171.637 236.435Z" fill="#2B426E"/>
<path d="M118.371 107.578C138.305 107.578 154.464 91.5467 154.464 71.771C154.464 51.9953 138.305 35.9639 118.371 35.9639C98.4381 35.9639 82.2791 51.9953 82.2791 71.771C82.2791 91.5467 98.4381 107.578 118.371 107.578Z" fill="#C1352E"/>
</g>
</g>
</g>
<defs>
<clipPath id="clip0_537_2993">
<rect width="200" height="290" rx="8" fill="white"/>
</clipPath>
</defs>
</svg>
