<svg width="200" height="290" viewBox="0 0 200 290" fill="none" xmlns="http://www.w3.org/2000/svg">
<g clip-path="url(#clip0_536_3634)">
<path d="M200 0H0V290H200V0Z" fill="#F6ADCD"/>
<mask id="mask0_536_3634" style="mask-type:luminance" maskUnits="userSpaceOnUse" x="29" y="35" width="142" height="220">
<path d="M100 254.737C139.081 254.737 170.763 205.606 170.763 145C170.763 84.394 139.081 35.2632 100 35.2632C60.919 35.2632 29.2375 84.394 29.2375 145C29.2375 205.606 60.919 254.737 100 254.737Z" fill="white"/>
</mask>
<g mask="url(#mask0_536_3634)">
<path d="M177.183 114.05H22.8169V259.351H177.183V114.05Z" fill="#F3EADE"/>
<path d="M133.178 114.05H66.54V135.76H133.178V114.05Z" fill="#182332"/>
<path d="M100 30.5518H22.8169V114.044H100V30.5518Z" fill="#2A5E80"/>
<path d="M177.161 30.5518H100V114.044H177.161V30.5518Z" fill="#3C693C"/>
<path d="M99.8209 111.39C119.88 111.39 136.141 95.2571 136.141 75.3565C136.141 55.4559 119.88 39.3232 99.8209 39.3232C79.7618 39.3232 63.5007 55.4559 63.5007 75.3565C63.5007 95.2571 79.7618 111.39 99.8209 111.39Z" fill="#CA5858"/>
<path d="M133.465 114.05H133.102C130.529 114.05 128.092 115.132 126.339 116.99C119.712 124.017 110.285 128.405 99.821 128.405C89.3569 128.405 79.9295 124.011 73.3027 116.99C71.5442 115.127 69.1073 114.05 66.5401 114.05C42.3936 114.05 22.8169 133.472 22.8169 157.428V173.673H177.183V157.428C177.183 133.472 157.607 114.05 133.46 114.05H133.465Z" fill="#EEAE6B"/>
<path d="M22.8169 173.672H58.8223V242.417C38.9472 242.417 22.8169 226.408 22.8169 206.696V173.672Z" fill="#C1352E"/>
<path d="M58.8277 173.672V249.734C51.4736 251.592 45.422 255.081 41.7639 259.502H100.005V173.667H58.8331L58.8277 173.672Z" fill="#715243"/>
<path d="M141.297 173.672V249.734C148.651 251.592 154.703 255.081 158.361 259.502H141.297H100.125V259.351V173.672H141.297Z" fill="#3C693C"/>
</g>
</g>
<defs>
<clipPath id="clip0_536_3634">
<rect width="200" height="290" rx="8" fill="white"/>
</clipPath>
</defs>
</svg>
