<svg width="200" height="290" viewBox="0 0 200 290" fill="none" xmlns="http://www.w3.org/2000/svg">
<g clip-path="url(#clip0_536_3804)">
<path d="M200 0H0V290H200V0Z" fill="#F6ADCD"/>
<mask id="mask0_536_3804" style="mask-type:luminance" maskUnits="userSpaceOnUse" x="29" y="35" width="142" height="220">
<path d="M99.9999 254.737C139.081 254.737 170.762 205.606 170.762 145C170.762 84.394 139.081 35.2632 99.9999 35.2632C60.9188 35.2632 29.2373 84.394 29.2373 145C29.2373 205.606 60.9188 254.737 99.9999 254.737Z" fill="white"/>
</mask>
<g mask="url(#mask0_536_3804)">
<path d="M174.149 33.4219H25.1069V254.737H174.149V33.4219Z" fill="#F0E0C1"/>
<path d="M50.7568 239.66V193.138" stroke="#EEAE6B" stroke-width="11" stroke-miterlimit="10"/>
<path d="M148.591 239.66V193.138" stroke="#2B75A2" stroke-width="11" stroke-miterlimit="10"/>
<path d="M148.591 146.616V100.093" stroke="#2B75A2" stroke-width="11" stroke-miterlimit="10"/>
<path d="M50.7568 98.8276H99.7229" stroke="#EEAE6B" stroke-width="11" stroke-miterlimit="10"/>
<path d="M98.2195 149.744L49.9155 197.661" stroke="#EEAE6B" stroke-width="11" stroke-miterlimit="10"/>
<path d="M148.591 100.093V53.5762" stroke="#EEAE6B" stroke-width="11" stroke-miterlimit="10"/>
<path d="M99.6255 191.361H148.592" stroke="#EEAE6B" stroke-width="11" stroke-miterlimit="10"/>
<path d="M50.7568 234.583H148.499" stroke="#EEAE6B" stroke-width="11" stroke-miterlimit="10"/>
<path d="M50.7568 100.093V53.5762" stroke="#2B75A2" stroke-width="11" stroke-miterlimit="10"/>
<path d="M49.9155 53.5762L98.2195 101.493" stroke="#2B5A34" stroke-width="11" stroke-miterlimit="10"/>
<path d="M49.9155 142.583L98.2195 190.499" stroke="#2B5A34" stroke-width="11" stroke-miterlimit="10"/>
<path d="M148.26 100.093L99.9619 148.016" stroke="#2B5A34" stroke-width="11" stroke-miterlimit="10"/>
<path d="M50.7568 146.616V100.093" stroke="#2B5A34" stroke-width="11" stroke-miterlimit="10"/>
<path d="M99.6255 193.138V146.615" stroke="#2B5A34" stroke-width="11" stroke-miterlimit="10"/>
<path d="M50.7568 144.079H99.7229" stroke="#2B5A34" stroke-width="11" stroke-miterlimit="10"/>
<path d="M99.9619 192.228L148.26 240.145" stroke="#C1352E" stroke-width="11" stroke-miterlimit="10"/>
<path d="M148.26 53.5762L99.9619 101.493" stroke="#C1352E" stroke-width="11" stroke-miterlimit="10"/>
<path d="M98.2195 103.222L49.9155 151.139" stroke="#C1352E" stroke-width="11" stroke-miterlimit="10"/>
<path d="M50.7568 193.138V146.615" stroke="#C1352E" stroke-width="11" stroke-miterlimit="10"/>
<path d="M148.591 193.138V146.615" stroke="#C1352E" stroke-width="11" stroke-miterlimit="10"/>
<path d="M99.6255 146.616V100.093" stroke="#C23E2E" stroke-width="11" stroke-miterlimit="10"/>
<path d="M50.7568 53.5762H148.499" stroke="#2B75A2" stroke-width="11" stroke-miterlimit="10"/>
<path d="M99.9619 103.222L148.26 151.139" stroke="#2B75A2" stroke-width="11" stroke-miterlimit="10"/>
<path d="M99.9619 142.583L148.26 190.499" stroke="#2B75A2" stroke-width="11" stroke-miterlimit="10"/>
<path d="M98.2195 192.228L49.9155 240.145" stroke="#2B75A2" stroke-width="11" stroke-miterlimit="10"/>
<path d="M50.7567 66.6821C58.0525 66.6821 63.967 60.8144 63.967 53.5762C63.967 46.3379 58.0525 40.4702 50.7567 40.4702C43.4608 40.4702 37.5464 46.3379 37.5464 53.5762C37.5464 60.8144 43.4608 66.6821 50.7567 66.6821Z" fill="#EEAE6B"/>
<path d="M148.499 66.6821C155.795 66.6821 161.709 60.8144 161.709 53.5762C161.709 46.3379 155.795 40.4702 148.499 40.4702C141.203 40.4702 135.289 46.3379 135.289 53.5762C135.289 60.8144 141.203 66.6821 148.499 66.6821Z" fill="#2B75A2"/>
<path d="M50.7567 111.934C58.0525 111.934 63.967 106.066 63.967 98.8276C63.967 91.5894 58.0525 85.7217 50.7567 85.7217C43.4608 85.7217 37.5464 91.5894 37.5464 98.8276C37.5464 106.066 43.4608 111.934 50.7567 111.934Z" fill="#2B5A34"/>
<path d="M99.6253 111.934C106.921 111.934 112.836 106.066 112.836 98.8276C112.836 91.5894 106.921 85.7217 99.6253 85.7217C92.3295 85.7217 86.415 91.5894 86.415 98.8276C86.415 106.066 92.3295 111.934 99.6253 111.934Z" fill="#C1352E"/>
<path d="M148.499 111.934C155.795 111.934 161.709 106.066 161.709 98.8276C161.709 91.5894 155.795 85.7217 148.499 85.7217C141.203 85.7217 135.289 91.5894 135.289 98.8276C135.289 106.066 141.203 111.934 148.499 111.934Z" fill="#EEAE6B"/>
<path d="M50.7567 157.186C58.0525 157.186 63.967 151.318 63.967 144.08C63.967 136.841 58.0525 130.974 50.7567 130.974C43.4608 130.974 37.5464 136.841 37.5464 144.08C37.5464 151.318 43.4608 157.186 50.7567 157.186Z" fill="#2B75A2"/>
<path d="M99.6253 157.186C106.921 157.186 112.836 151.318 112.836 144.08C112.836 136.841 106.921 130.974 99.6253 130.974C92.3295 130.974 86.415 136.841 86.415 144.08C86.415 151.318 92.3295 157.186 99.6253 157.186Z" fill="#C1352E"/>
<path d="M148.499 157.186C155.795 157.186 161.709 151.318 161.709 144.08C161.709 136.841 155.795 130.974 148.499 130.974C141.203 130.974 135.289 136.841 135.289 144.08C135.289 151.318 141.203 157.186 148.499 157.186Z" fill="#2B5A34"/>
<path d="M50.7567 202.437C58.0525 202.437 63.967 196.569 63.967 189.331C63.967 182.093 58.0525 176.225 50.7567 176.225C43.4608 176.225 37.5464 182.093 37.5464 189.331C37.5464 196.569 43.4608 202.437 50.7567 202.437Z" fill="#C1352E"/>
<path d="M99.6253 202.437C106.921 202.437 112.836 196.569 112.836 189.331C112.836 182.093 106.921 176.225 99.6253 176.225C92.3295 176.225 86.415 182.093 86.415 189.331C86.415 196.569 92.3295 202.437 99.6253 202.437Z" fill="#2B5A34"/>
<path d="M148.499 202.437C155.795 202.437 161.709 196.569 161.709 189.331C161.709 182.093 155.795 176.225 148.499 176.225C141.203 176.225 135.289 182.093 135.289 189.331C135.289 196.569 141.203 202.437 148.499 202.437Z" fill="#EEAE6B"/>
<path d="M50.7567 247.688C58.0525 247.688 63.967 241.821 63.967 234.583C63.967 227.344 58.0525 221.477 50.7567 221.477C43.4608 221.477 37.5464 227.344 37.5464 234.583C37.5464 241.821 43.4608 247.688 50.7567 247.688Z" fill="#2B5A34"/>
<path d="M148.499 247.688C155.795 247.688 161.709 241.821 161.709 234.583C161.709 227.344 155.795 221.477 148.499 221.477C141.203 221.477 135.289 227.344 135.289 234.583C135.289 241.821 141.203 247.688 148.499 247.688Z" fill="#C1352E"/>
</g>
</g>
<defs>
<clipPath id="clip0_536_3804">
<rect width="200" height="290" rx="8" fill="white"/>
</clipPath>
</defs>
</svg>
