<svg width="200" height="280" viewBox="0 0 200 280" fill="none" xmlns="http://www.w3.org/2000/svg">
<g clip-path="url(#clip0_536_3690)">
<path d="M200 0H0V280H200V0Z" fill="#F6ADCD"/>
<mask id="mask0_536_3690" style="mask-type:luminance" maskUnits="userSpaceOnUse" x="29" y="34" width="142" height="212">
<path d="M99.9999 245.953C139.081 245.953 170.762 198.516 170.762 140C170.762 81.484 139.081 34.0474 99.9999 34.0474C60.9188 34.0474 29.2373 81.484 29.2373 140C29.2373 198.516 60.9188 245.953 99.9999 245.953Z" fill="white"/>
</mask>
<g mask="url(#mask0_536_3690)">
<path d="M147.18 200.941C147.18 200.941 119.604 242.267 82.7677 251.136H22.8926V251.162H177.112V175.638C171.023 178.347 160.146 184.991 147.18 200.941Z" fill="#EEAE6B"/>
<path d="M50.2521 95.9345C59.7338 116.439 75.3268 128.448 94.2901 103.551C113.248 78.6535 121.509 114.094 128.543 125.23C135.576 136.361 146.279 136.07 156.678 123.764C163.913 115.201 171.001 120.686 177.118 127.772V30.1118H22.8926V89.6959C30.8329 85.8124 43.9021 82.2044 50.2521 95.9345Z" fill="#C1352E"/>
<path d="M139.544 169.867C106.822 219.199 67.9835 192.015 67.9835 192.015C47.2834 171.604 31.2997 169.254 22.8872 169.982V251.136H82.7624C119.598 242.267 147.175 200.941 147.175 200.941C160.141 184.991 171.017 178.347 177.107 175.638V144.289C153.878 148.407 139.544 169.862 139.544 169.862V169.867Z" fill="#3C693C"/>
<path d="M156.673 111.552C146.274 123.857 135.571 124.149 128.537 113.018C121.503 101.887 113.248 66.4412 94.2848 91.3385C75.3268 116.236 59.7285 104.226 50.2468 83.7222C43.8967 69.992 30.8275 73.6 22.8872 77.4836V89.6905C30.8275 85.8069 43.8967 82.1989 50.2468 95.9291C59.7285 116.433 75.3214 128.443 94.2848 103.545C113.243 78.6481 121.503 114.089 128.537 125.225C135.571 136.355 146.274 136.064 156.673 123.759C163.908 115.196 170.996 120.681 177.112 127.767V115.56C170.996 108.474 163.908 102.989 156.673 111.552Z" fill="black"/>
<path d="M156.673 123.764C146.274 136.07 135.571 136.361 128.537 125.23C121.503 114.099 113.248 78.6536 94.2848 103.551C75.3268 128.448 59.7285 116.439 50.2468 95.9346C43.8967 82.2044 30.8275 85.8124 22.8872 89.696V169.982C31.2997 169.254 47.2834 171.604 67.9835 192.015C67.9835 192.015 106.822 219.199 139.544 169.868C139.544 169.868 153.878 148.412 177.107 144.294V127.772C170.99 120.686 163.902 115.202 156.667 123.764H156.673Z" fill="#2B75A2"/>
</g>
</g>
<defs>
<clipPath id="clip0_536_3690">
<rect width="200" height="280" rx="8" fill="white"/>
</clipPath>
</defs>
</svg>
