<svg width="200" height="280" viewBox="0 0 200 280" fill="none" xmlns="http://www.w3.org/2000/svg">
<g clip-path="url(#clip0_536_3920)">
<path d="M200 0H0V280H200V0Z" fill="#F6ADCD"/>
<mask id="mask0_536_3920" style="mask-type:luminance" maskUnits="userSpaceOnUse" x="29" y="34" width="142" height="212">
<path d="M99.9999 245.953C139.081 245.953 170.762 198.516 170.762 140C170.762 81.484 139.081 34.0474 99.9999 34.0474C60.9188 34.0474 29.2373 81.484 29.2373 140C29.2373 198.516 60.9188 245.953 99.9999 245.953Z" fill="white"/>
</mask>
<g mask="url(#mask0_536_3920)">
<path d="M48.4395 252.134L81.2373 235.618L48.4395 252.134Z" fill="#E29D34"/>
<path d="M71.647 252.134H127.272L99.457 238.124L71.647 252.134Z" fill="#BA4B30"/>
<path d="M40.8357 53.6057L52.4395 31.0791L40.8357 53.6057L22.3662 56.174L40.8357 53.6057Z" fill="#E29D34"/>
<path d="M40.3961 31.0791H25.3404L24.6946 32.332L22.3662 32.6544V45.7191L33.6606 44.149L40.3961 31.0791Z" fill="#2B426E"/>
<path d="M173.574 31.0791H158.523L165.253 44.149L176.548 45.7191V32.6544L174.22 32.332L173.574 31.0791Z" fill="#2B426E"/>
<path d="M66.605 31.0791H52.4395L40.8357 53.6057L22.3662 56.174V68.4693L49.2699 64.7261L66.605 31.0791Z" fill="#2B5A34"/>
<path d="M150.48 252.134H176.548V251.516L99.4571 212.69L22.3662 251.516V252.134H48.4395L81.2373 235.617L99.4571 226.436L150.48 252.134Z" fill="#2B5A34"/>
<path d="M146.48 31.0791H132.314L149.65 64.7261L176.548 68.4693V56.174L158.084 53.6057L146.48 31.0791Z" fill="#2B5A34"/>
<path d="M128.016 46.109L120.271 31.0791L128.016 46.109Z" fill="#E29D34"/>
<path d="M158.523 31.0791H146.48L158.084 53.6057L176.548 56.174V45.7191L165.253 44.149L158.523 31.0791Z" fill="#C1352E"/>
<path d="M99.4571 226.437L81.2373 235.618L48.4395 252.134H71.647L99.4571 238.124L127.273 252.134H150.48L99.4571 226.437Z" fill="#C1352E"/>
<path d="M40.8357 53.6057L52.4395 31.0791H40.3961L33.6606 44.149L22.3662 45.7191V56.174L40.8357 53.6057Z" fill="#C1352E"/>
<path d="M99.4571 226.437L81.2373 235.618L99.4571 226.437L150.48 252.134L99.4571 226.437Z" fill="#C1352E"/>
<path d="M22.3662 78.9242V90.8607L65.8018 84.8145L89.7746 38.2847L93.487 31.0791H78.6484L56.4395 74.1828L22.3662 78.9242Z" fill="#2B426E"/>
<path d="M176.548 101.316L160.912 99.1372L176.548 101.316Z" fill="#E29D34"/>
<path d="M125.948 94.271L107.419 58.3105L125.948 94.271Z" fill="#E29D34"/>
<path d="M105.433 31.0791L109.145 38.2847L133.118 84.8145L176.548 90.8607V78.9242L142.475 74.1828L128.016 46.109L120.271 31.0791H105.433Z" fill="#2B426E"/>
<path d="M99.457 172.358L121.074 183.244L99.457 172.358Z" fill="#E29D34"/>
<path d="M46.4854 199.039L47.8639 191.329L46.4854 199.039Z" fill="#E29D34"/>
<path d="M152.434 199.038L143.609 149.748L152.434 199.038Z" fill="#E29D34"/>
<path d="M176.548 239.828V194.364L169.064 152.56L176.548 145.573V125.012L153.921 146.145L163.077 197.286L166.779 217.946L147.408 208.193L99.4571 184.045L51.5114 208.193L32.141 217.946L35.837 197.286L44.9985 146.145L22.3662 125.012V145.573L29.8506 152.56L22.3662 194.37V239.828L99.4571 201.003L176.548 239.828Z" fill="#2B426E"/>
<path d="M128.016 46.109L142.475 74.1828L176.548 78.9242V68.4693L149.65 64.7261L132.314 31.0791H120.271L128.016 46.109Z" fill="#F68C47"/>
<path d="M56.4395 74.1828L78.6484 31.0791H66.605L49.2699 64.7261L22.3662 68.4693V78.9242L56.4395 74.1828Z" fill="#F68C47"/>
<path d="M99.4571 201.003L22.3662 239.828V251.516L99.4571 212.69L176.548 251.516V239.828L99.4571 201.003Z" fill="#F68C47"/>
<path d="M176.548 194.364V145.573L169.063 152.561L176.548 194.364Z" fill="#F68C47"/>
<path d="M22.3662 145.573V194.37L29.8506 152.561L22.3662 145.573Z" fill="#BA4B30"/>
<path d="M29.8506 152.561L22.3662 145.573L29.8506 152.561L22.3662 194.37L29.8506 152.561Z" fill="#F68C47"/>
<path d="M142.475 74.1827L128.016 46.1089L142.475 74.1827Z" fill="#602631"/>
<path d="M22.3663 101.315V110.569L56.597 142.532L47.8589 191.328L46.4803 199.038L99.4572 172.363L121.069 183.249L152.429 199.044L143.604 149.753L142.312 142.537L176.543 110.575V101.321L160.901 99.1424L125.938 94.2762L107.408 58.3157L99.4464 42.8647L72.9606 94.2762L22.3555 101.321L22.3663 101.315ZM81.0692 105.131L93.004 81.9705L99.4627 69.4413L105.921 81.9705L117.856 105.131L144.543 108.843L158.98 110.855L148.532 120.608L129.221 138.638L133.78 164.097L136.244 177.869L123.332 171.365L99.4627 159.345L75.5929 171.365L62.6811 177.869L65.1452 164.097L69.7042 138.638L50.3935 120.608L39.9457 110.855L54.3826 108.843L81.0692 105.131Z" fill="#2B5A34"/>
<path d="M143.5 115.675L113.069 111.438L99.457 85.0225L113.069 111.438L143.5 115.675Z" fill="#E29D34"/>
<path d="M72.2388 165.267L73.4165 158.69L72.2388 165.267L99.4572 151.557L72.2388 165.267Z" fill="#E29D34"/>
<path d="M122.882 144.066L121.476 136.231L122.882 144.066Z" fill="#E29D34"/>
<path d="M55.4189 115.675L78.0078 112.529L55.4189 115.675Z" fill="#E29D34"/>
<path d="M126.675 165.267L111.522 157.635L126.675 165.267Z" fill="#E29D34"/>
<path d="M142.317 142.532L143.609 149.748L152.434 199.038L121.074 183.244L99.4571 172.358L46.4856 199.038L47.8642 191.328L56.6023 142.532L22.3662 110.569V125.012L44.9985 146.145L35.837 197.286L32.141 217.947L51.5114 208.193L99.4571 184.045L147.408 208.193L166.779 217.947L163.077 197.286L153.921 146.145L176.548 125.012V110.569L142.317 142.532Z" fill="#C1352E"/>
<path d="M65.8018 84.8145L22.3662 90.8607V101.316L72.9714 94.2712L99.4571 42.8597L107.419 58.3107L125.948 94.2712L160.912 99.1373L176.548 101.316V90.8607L133.118 84.8145L109.145 38.2847L105.433 31.0791H93.487L89.7746 38.2847L65.8018 84.8145Z" fill="#C1352E"/>
<path d="M152.434 199.038L121.074 183.244L152.434 199.038Z" fill="#602631"/>
<path d="M99.457 42.8599L107.419 58.3109L99.457 42.8599Z" fill="#602631"/>
<path d="M160.912 99.1371L125.948 94.271L160.912 99.1371Z" fill="#602631"/>
<path d="M22.3662 110.569L56.6023 142.532L47.8642 191.328L56.6023 142.532L22.3662 110.569Z" fill="#602631"/>
<path d="M143.609 149.748L142.317 142.532L143.609 149.748Z" fill="#602631"/>
<path d="M73.4162 158.69L72.2385 165.267L99.4569 151.557L111.522 157.635L126.675 165.267L122.882 144.066L121.476 136.231L143.5 115.675L113.069 111.438L99.4569 85.0225L85.8504 111.438L78.0078 112.53L55.4189 115.675L77.4379 136.231L73.4162 158.69Z" fill="#EEAE6B"/>
<path d="M39.9453 110.855L50.3931 120.609L69.7038 138.638L65.1448 164.097L62.6807 177.869L75.5925 171.365L99.4623 159.345L123.332 171.365L136.244 177.869L133.78 164.097L129.221 138.638L148.531 120.609L158.979 110.855L144.542 108.844L117.856 105.132L105.921 81.9706L99.4623 69.4414L93.0037 81.9706L81.0688 105.132L54.3822 108.844L39.9453 110.855ZM55.4189 115.675L78.0132 112.53L85.8503 111.438L99.4623 85.0224L113.074 111.438L143.506 115.675L121.487 136.236L122.887 144.066L126.681 165.267L111.527 157.635L99.4623 151.557L72.2438 165.267L73.4216 158.69L77.4433 136.236L55.4243 115.675H55.4189Z" fill="#2B426E"/>
<path d="M126.676 165.267L122.882 144.066L126.676 165.267Z" fill="white"/>
<path d="M99.457 151.557L111.522 157.635L99.457 151.557Z" fill="white"/>
<path d="M77.4379 136.231L73.4162 158.69L77.4379 136.231L55.4189 115.675L77.4379 136.231Z" fill="white"/>
<path d="M99.4569 85.0225L85.8504 111.438L78.0078 112.53L85.8504 111.438L99.4569 85.0225Z" fill="white"/>
<path d="M99.4569 104.7L107.267 119.855L124.721 122.283L112.092 134.079L115.072 150.731L99.4569 142.865L83.8477 150.731L86.8273 134.079L74.1978 122.283L91.6523 119.855L99.4569 104.7Z" fill="#2B426E"/>
</g>
</g>
<defs>
<clipPath id="clip0_536_3920">
<rect width="200" height="280" rx="8" fill="white"/>
</clipPath>
</defs>
</svg>
